<svg width="211" height="27" viewBox="0 0 211 27" fill="none" xmlns="http://www.w3.org/2000/svg">
<path d="M8.96875 1.75C9.11458 2.02083 9.1875 2.33333 9.1875 2.6875C9.1875 3 9.125 3.33333 9 3.6875C8.875 4.04167 8.67708 4.3125 8.40625 4.5C8.21875 4.91667 8.03125 5.26042 7.84375 5.53125C7.67708 5.78125 7.51042 6.03125 7.34375 6.28125C7.28125 6.42708 7.21875 6.57292 7.15625 6.71875C7.09375 6.84375 7.01042 6.97917 6.90625 7.125C6.84375 7.22917 6.70833 7.4375 6.5 7.75C6.29167 8.0625 6.07292 8.39583 5.84375 8.75C5.63542 9.08333 5.44792 9.40625 5.28125 9.71875C5.11458 10.0312 5.03125 10.2292 5.03125 10.3125C5.03125 10.3958 5.125 10.5 5.3125 10.625C5.52083 10.75 5.65625 10.8438 5.71875 10.9062C5.82292 11.0104 5.91667 11.1146 6 11.2188C6.10417 11.3229 6.20833 11.4271 6.3125 11.5312C6.54167 11.7188 6.76042 11.9062 6.96875 12.0938C7.19792 12.2812 7.42708 12.4896 7.65625 12.7188C8.09375 13.1146 8.55208 13.4896 9.03125 13.8438C9.51042 14.1979 9.9375 14.6146 10.3125 15.0938C10.6667 15.1979 10.8958 15.4479 11 15.8438C11.1042 16.2396 11.1354 16.6146 11.0938 16.9688C11.1354 17.0312 11.1667 17.0938 11.1875 17.1562C11.2292 17.2188 11.2708 17.2917 11.3125 17.375C11.3125 17.7083 11.2604 17.9583 11.1562 18.125C11.0729 18.2708 10.9792 18.4583 10.875 18.6875C10.7708 18.8958 10.6979 19.1042 10.6562 19.3125C10.6354 19.5208 10.5729 19.7083 10.4688 19.875C10.4271 19.9375 10.3646 19.9896 10.2812 20.0312C10.2188 20.0729 10.1667 20.1354 10.125 20.2188C10.0417 20.3646 9.96875 20.5417 9.90625 20.75C9.86458 20.9375 9.80208 21.1146 9.71875 21.2812C9.65625 21.4479 9.57292 21.6146 9.46875 21.7812C9.38542 21.9479 9.3125 22.1146 9.25 22.2812C9.20833 22.3854 9.16667 22.5104 9.125 22.6562C9.10417 22.8021 9.01042 22.9062 8.84375 22.9688C8.73958 23.3438 8.59375 23.7083 8.40625 24.0625C8.23958 24.4167 8.10417 24.7812 8 25.1562C7.8125 25.2188 7.57292 25.3333 7.28125 25.5C7.01042 25.6875 6.79167 25.7812 6.625 25.7812C6.5625 25.7812 6.51042 25.75 6.46875 25.6875C6.42708 25.625 6.36458 25.5729 6.28125 25.5312C6.23958 25.5104 6.17708 25.5104 6.09375 25.5312C6.03125 25.5521 5.97917 25.5625 5.9375 25.5625C5.83333 25.5625 5.75 25.5208 5.6875 25.4375C5.64583 25.3542 5.58333 25.2917 5.5 25.25C5.4375 25.2708 5.375 25.2917 5.3125 25.3125C5.25 25.3333 5.1875 25.3438 5.125 25.3438C4.97917 25.3438 4.89583 25.3021 4.875 25.2188C4.85417 25.1562 4.79167 25.0938 4.6875 25.0312C4.4375 24.9062 4.29167 24.7917 4.25 24.6875C4.20833 24.5833 4.14583 24.5104 4.0625 24.4688C4.20833 23.9271 4.40625 23.4167 4.65625 22.9375C4.90625 22.4375 5.14583 21.9375 5.375 21.4375C5.4375 21.2708 5.51042 21.1146 5.59375 20.9688C5.69792 20.8229 5.79167 20.6667 5.875 20.5C5.9375 20.3542 6.03125 20.1667 6.15625 19.9375C6.28125 19.7083 6.39583 19.4688 6.5 19.2188C6.60417 18.9688 6.69792 18.7396 6.78125 18.5312C6.86458 18.3021 6.90625 18.1146 6.90625 17.9688C6.90625 17.6771 6.82292 17.4583 6.65625 17.3125C6.05208 16.8125 5.47917 16.3021 4.9375 15.7812C4.41667 15.2604 3.86458 14.7292 3.28125 14.1875C2.90625 13.8542 2.5 13.5104 2.0625 13.1562C1.97917 13.0938 1.91667 13 1.875 12.875C1.83333 12.75 1.77083 12.6354 1.6875 12.5312C1.64583 12.4479 1.58333 12.3854 1.5 12.3438C1.41667 12.3021 1.35417 12.2396 1.3125 12.1562C1.25 12.0729 1.20833 11.9792 1.1875 11.875C1.16667 11.75 1.10417 11.6562 1 11.5938C0.895833 11.4896 0.770833 11.4271 0.625 11.4062C0.479167 11.3854 0.354167 11.3229 0.25 11.2188C0.3125 11.1562 0.34375 11.0938 0.34375 11.0312C0.322917 10.9479 0.3125 10.875 0.3125 10.8125C0.3125 10.6667 0.375 10.5625 0.5 10.5C0.625 10.4375 0.6875 10.3229 0.6875 10.1562C0.770833 9.98958 0.833333 9.88542 0.875 9.84375C1.10417 9.28125 1.36458 8.73958 1.65625 8.21875C1.94792 7.69792 2.25 7.17708 2.5625 6.65625C2.66667 6.48958 2.76042 6.33333 2.84375 6.1875C2.94792 6.02083 3.05208 5.85417 3.15625 5.6875C3.21875 5.54167 3.27083 5.41667 3.3125 5.3125C3.375 5.1875 3.45833 5.07292 3.5625 4.96875C3.85417 4.63542 4.09375 4.32292 4.28125 4.03125C4.48958 3.73958 4.64583 3.38542 4.75 2.96875C4.77083 2.86458 4.8125 2.71875 4.875 2.53125C4.9375 2.34375 5.01042 2.15625 5.09375 1.96875C5.19792 1.78125 5.30208 1.61458 5.40625 1.46875C5.51042 1.32292 5.625 1.25 5.75 1.25C5.85417 1.25 6 1.29167 6.1875 1.375C6.39583 1.45833 6.57292 1.52083 6.71875 1.5625C6.84375 1.60417 6.96875 1.64583 7.09375 1.6875C7.23958 1.70833 7.375 1.71875 7.5 1.71875C7.58333 1.71875 7.66667 1.69792 7.75 1.65625C7.83333 1.59375 7.92708 1.5625 8.03125 1.5625C8.19792 1.5625 8.35417 1.59375 8.5 1.65625C8.64583 1.69792 8.80208 1.72917 8.96875 1.75ZM19.8438 1.34375C19.9479 1.71875 20.0521 2.09375 20.1562 2.46875C20.2604 2.82292 20.3854 3.17708 20.5312 3.53125C20.8438 3.57292 21.0312 3.60417 21.0938 3.625C21.1771 3.64583 21.2708 3.67708 21.375 3.71875C21.6042 4.26042 21.7396 4.84375 21.7812 5.46875C21.8438 6.07292 21.9271 6.66667 22.0312 7.25C22.4271 7.77083 22.7083 8.33333 22.875 8.9375C23.0625 9.52083 23.2708 10.1146 23.5 10.7188C23.5625 10.9271 23.6042 11.0625 23.625 11.125C23.6458 11.1667 23.6562 11.2083 23.6562 11.25C23.7812 11.6042 23.9062 11.9688 24.0312 12.3438C24.1562 12.7188 24.2917 13.0833 24.4375 13.4375C24.5 13.625 24.5625 13.8125 24.625 14C24.7083 14.1667 24.7812 14.3333 24.8438 14.5C24.9062 14.7083 24.9583 14.9271 25 15.1562C25.0625 15.3646 25.125 15.5729 25.1875 15.7812C25.3333 16.1979 25.4896 16.6146 25.6562 17.0312C25.8229 17.4479 25.9896 17.8646 26.1562 18.2812C26.2188 18.4271 26.3333 18.75 26.5 19.25C26.6875 19.75 26.875 20.2812 27.0625 20.8438C27.25 21.3854 27.4167 21.8958 27.5625 22.375C27.7292 22.8333 27.8125 23.1146 27.8125 23.2188C27.8125 23.3854 27.8229 23.5625 27.8438 23.75C27.8854 23.9167 27.9167 24.0938 27.9375 24.2812C27.8542 24.4896 27.75 24.6042 27.625 24.625C27.5 24.6458 27.3854 24.6354 27.2812 24.5938C27.1771 24.6354 27.0729 24.6771 26.9688 24.7188C26.8854 24.7604 26.8021 24.8021 26.7188 24.8438C26.6562 24.8646 26.6042 24.8958 26.5625 24.9375C26.5208 24.9792 26.4688 25 26.4062 25C26.1562 25 25.9896 25.0208 25.9062 25.0625C25.8438 25.125 25.7396 25.1562 25.5938 25.1562C25.4062 25.0938 25.2812 25.0833 25.2188 25.125C25.1771 25.1875 25.1354 25.2292 25.0938 25.25C25.0104 25.2917 24.9167 25.3125 24.8125 25.3125C24.7083 25.3125 24.6042 25.3229 24.5 25.3438C24.4583 25.2604 24.4167 25.1771 24.375 25.0938C24.3542 25.0104 24.3125 24.9167 24.25 24.8125C24.0208 24.4792 23.8542 24.1562 23.75 23.8438C23.6667 23.5312 23.5938 23.2812 23.5312 23.0938C23.4271 22.8646 23.3333 22.6354 23.25 22.4062C23.1875 22.1771 23.1042 21.9479 23 21.7188C22.875 21.7604 22.7604 21.8125 22.6562 21.875C22.5521 21.9167 22.4688 21.9792 22.4062 22.0625C22.1562 22.0625 22.0312 22.0938 22.0312 22.1562C22.0312 22.2188 22.0104 22.2812 21.9688 22.3438C21.8438 22.3854 21.7396 22.4271 21.6562 22.4688C21.5938 22.5104 21.4792 22.5208 21.3125 22.5C21.2083 22.6042 21.1042 22.6979 21 22.7812C20.8958 22.8438 20.7604 22.8854 20.5938 22.9062C20.4271 23.0729 20.25 23.2188 20.0625 23.3438C19.8958 23.4479 19.6979 23.4688 19.4688 23.4062C19.1771 23.4688 18.8854 23.5312 18.5938 23.5938C18.3021 23.6354 18.0104 23.6562 17.7188 23.6562C17.3854 23.5521 17.1771 23.4583 17.0938 23.375C17.0104 23.2917 16.8854 23.25 16.7188 23.25C16.7396 22.9583 16.6771 22.7604 16.5312 22.6562C16.5312 22.5938 16.5312 22.5 16.5312 22.375C16.5521 22.2292 16.5833 22.1354 16.625 22.0938C16.8958 21.9688 17.0521 21.8333 17.0938 21.6875C17.1354 21.5417 17.25 21.4479 17.4375 21.4062C17.4792 21.3229 17.5208 21.25 17.5625 21.1875C17.625 21.1042 17.6771 21.0208 17.7188 20.9375C17.8229 20.8958 17.9062 20.8646 17.9688 20.8438C18.0521 20.8229 18.1146 20.7604 18.1562 20.6562C18.2604 20.6562 18.4167 20.5938 18.625 20.4688C18.8333 20.3229 18.9688 20.2083 19.0312 20.125C19.1979 20.0625 19.3021 20.0104 19.3438 19.9688C19.3854 19.9062 19.4375 19.8542 19.5 19.8125C19.7083 19.8333 19.8438 19.8125 19.9062 19.75C20.0729 19.8333 20.2604 19.875 20.4688 19.875C20.5521 19.875 20.625 19.875 20.6875 19.875C20.75 19.8542 20.8229 19.8438 20.9062 19.8438C21.0729 19.6771 21.2812 19.5729 21.5312 19.5312C21.8021 19.4688 22.0208 19.3542 22.1875 19.1875C22.125 19.0208 22.0729 18.8229 22.0312 18.5938C21.9896 18.3438 21.9167 18.1458 21.8125 18C21.7708 17.7292 21.6979 17.4688 21.5938 17.2188C21.5104 16.9688 21.4375 16.7292 21.375 16.5C21.1458 15.625 20.875 14.7708 20.5625 13.9375C20.25 13.1042 19.9896 12.25 19.7812 11.375C19.7396 11.2708 19.6875 11.1667 19.625 11.0625C19.5833 10.9375 19.5417 10.8229 19.5 10.7188C19.3958 10.9688 19.3438 11.1146 19.3438 11.1562C19.3438 11.1771 19.3229 11.2083 19.2812 11.25C19.2604 11.3542 19.2396 11.4479 19.2188 11.5312C19.1979 11.5938 19.1667 11.6771 19.125 11.7812C19.0625 11.9479 19 12.1354 18.9375 12.3438C18.8958 12.5312 18.8542 12.7083 18.8125 12.875C18.7083 13.2292 18.6146 13.6042 18.5312 14C18.4479 14.375 18.3542 14.75 18.25 15.125C18.0417 15.7708 17.8229 16.4167 17.5938 17.0625C17.3854 17.6875 17.1771 18.3229 16.9688 18.9688C16.9271 19.2604 16.875 19.4896 16.8125 19.6562C16.7708 19.8021 16.7188 19.9583 16.6562 20.125C16.6146 20.2708 16.5729 20.4167 16.5312 20.5625C16.5104 20.7083 16.5 20.8229 16.5 20.9062C16.2083 21.5729 15.9583 22.25 15.75 22.9375C15.5625 23.625 15.3229 24.2917 15.0312 24.9375C14.9479 24.9792 14.875 25.0312 14.8125 25.0938C14.75 25.1562 14.6771 25.1875 14.5938 25.1875C14.4271 25.1875 14.3333 25.1458 14.3125 25.0625C14.3125 24.9792 14.2708 24.9375 14.1875 24.9375C14.1042 24.9375 14.0312 24.9583 13.9688 25C13.9062 25.0208 13.8438 25.0521 13.7812 25.0938C13.6771 25.0521 13.5521 25.0208 13.4062 25C13.2812 25 13.1875 24.9583 13.125 24.875C12.9792 24.9792 12.8333 25.0312 12.6875 25.0312C12.5208 25.0312 12.3542 24.9792 12.1875 24.875C12.0625 24.9167 11.9375 24.9375 11.8125 24.9375C11.75 24.9375 11.6771 24.9271 11.5938 24.9062C11.5104 24.8854 11.4479 24.8542 11.4062 24.8125C11.3854 24.7292 11.375 24.6458 11.375 24.5625C11.375 24.4792 11.375 24.3854 11.375 24.2812C11.375 24.0729 11.3542 23.9167 11.3125 23.8125C11.6875 22.75 12.0521 21.6771 12.4062 20.5938C12.7604 19.4896 13.1146 18.375 13.4688 17.25C13.6562 16.7292 13.8333 16.2188 14 15.7188C14.1875 15.2188 14.3646 14.7083 14.5312 14.1875C14.6146 13.8958 14.6875 13.625 14.75 13.375C14.8125 13.1042 14.8958 12.8438 15 12.5938C15.1667 12.0521 15.3333 11.5104 15.5 10.9688C15.6875 10.4062 15.8542 9.85417 16 9.3125C16.0833 9.25 16.1354 9.17708 16.1562 9.09375C16.1771 9.01042 16.2083 8.91667 16.25 8.8125L16.2188 8.40625C16.3646 8.19792 16.4583 8.02083 16.5 7.875C16.5625 7.70833 16.6042 7.54167 16.625 7.375C16.7292 7.125 16.8229 6.85417 16.9062 6.5625C16.9896 6.27083 17.0521 6 17.0938 5.75C17.1354 5.41667 17.1562 5.04167 17.1562 4.625C17.1771 4.1875 17.2396 3.82292 17.3438 3.53125C17.3854 3.44792 17.4167 3.39583 17.4375 3.375C17.4792 3.33333 17.5 3.26042 17.5 3.15625C17.5417 3.11458 17.5833 3.07292 17.625 3.03125C17.6875 2.96875 17.7292 2.90625 17.75 2.84375C17.8542 2.67708 17.8854 2.53125 17.8438 2.40625C17.8229 2.28125 17.8125 2.14583 17.8125 2C18 1.89583 18.0833 1.80208 18.0625 1.71875C18.0417 1.63542 18.0312 1.55208 18.0312 1.46875C18.0312 1.36458 18.0938 1.27083 18.2188 1.1875C18.3646 1.08333 18.4583 0.979167 18.5 0.875C18.625 0.895833 18.75 0.916667 18.875 0.9375C19 0.9375 19.125 0.927083 19.25 0.90625C19.3958 1.17708 19.5729 1.3125 19.7812 1.3125L19.8438 1.34375ZM39.9375 1.6875C40.2708 1.64583 40.5208 1.67708 40.6875 1.78125C40.875 1.86458 41.0625 1.91667 41.25 1.9375C41.3542 1.95833 41.4583 1.96875 41.5625 1.96875C41.6875 1.94792 41.8125 1.9375 41.9375 1.9375C42.2083 1.9375 42.4167 1.96875 42.5625 2.03125C42.7292 2.09375 42.8958 2.22917 43.0625 2.4375C43.1042 2.47917 43.1562 2.54167 43.2188 2.625C43.3021 2.6875 43.3438 2.75 43.3438 2.8125C43.3438 2.97917 43.3021 3.125 43.2188 3.25C43.1354 3.375 43.0938 3.55208 43.0938 3.78125C43.0938 4.13542 43.1354 4.48958 43.2188 4.84375C43.3021 5.17708 43.3542 5.52083 43.375 5.875C43.4792 7.16667 43.5312 8.46875 43.5312 9.78125C43.5521 11.0729 43.5625 12.3542 43.5625 13.625C43.5625 13.7917 43.5521 13.9479 43.5312 14.0938C43.5312 14.2188 43.4896 14.3333 43.4062 14.4375V14.8438C43.3854 15.3854 43.3958 15.9375 43.4375 16.5C43.4792 17.0417 43.5 17.5833 43.5 18.125C43.5 18.6042 43.4688 19.0833 43.4062 19.5625C43.3646 20.0417 43.3438 20.5312 43.3438 21.0312C43.3438 21.4896 43.375 21.9375 43.4375 22.375C43.5 22.8125 43.5312 23.2604 43.5312 23.7188C43.4271 23.9062 43.3646 24.0521 43.3438 24.1562C43.3229 24.2604 43.2812 24.3542 43.2188 24.4375C43.1562 24.4792 43.0833 24.4896 43 24.4688C42.9375 24.4479 42.8854 24.4688 42.8438 24.5312C42.7396 24.6562 42.6667 24.8021 42.625 24.9688C42.5833 25.1354 42.4792 25.2708 42.3125 25.375C42.2708 25.6667 42.1562 25.8854 41.9688 26.0312C41.8021 26.1979 41.6771 26.4062 41.5938 26.6562C41.3438 26.6771 41.1667 26.6667 41.0625 26.625C40.9792 26.5833 40.8854 26.5417 40.7812 26.5C40.7604 26.1458 40.7604 25.8854 40.7812 25.7188C40.8229 25.5729 40.8438 25.4167 40.8438 25.25C40.8438 25.0417 40.7917 24.8854 40.6875 24.7812C40.5833 24.6771 40.5104 24.5417 40.4688 24.375C40.2396 24.2292 40.0833 24.1354 40 24.0938C39.9167 24.0312 39.8438 23.9583 39.7812 23.875C39.6562 23.7083 39.5521 23.5312 39.4688 23.3438C39.3854 23.1562 39.2917 22.9792 39.1875 22.8125C38.8958 22.3333 38.5938 21.8438 38.2812 21.3438C37.9896 20.8438 37.6667 20.3542 37.3125 19.875C37.25 19.7708 37.1771 19.6771 37.0938 19.5938C37.0104 19.5104 36.9375 19.4167 36.875 19.3125C36.5208 18.75 36.1875 18.1771 35.875 17.5938C35.5625 17.0104 35.1979 16.4583 34.7812 15.9375C34.6146 15.7292 34.4896 15.5 34.4062 15.25C34.3229 14.9792 34.1979 14.75 34.0312 14.5625C34.0104 14.6667 34 14.7812 34 14.9062C34 15.0312 34 15.1458 34 15.25C34 15.9583 34.0104 16.6667 34.0312 17.375C34.0729 18.0625 34.0938 18.7604 34.0938 19.4688C34.0938 19.6146 34.0729 19.75 34.0312 19.875C34.0104 19.9792 34 20.1042 34 20.25C34 20.4583 34.0104 20.6562 34.0312 20.8438C34.0521 21.0312 34.0625 21.2188 34.0625 21.4062C34.0625 21.6354 34.0521 21.8542 34.0312 22.0625C34.0312 22.2708 34.0208 22.4792 34 22.6875C33.9583 22.9583 33.9062 23.2188 33.8438 23.4688C33.7812 23.6979 33.75 23.9375 33.75 24.1875C33.75 24.3333 33.7604 24.4688 33.7812 24.5938C33.8229 24.7188 33.8438 24.8333 33.8438 24.9375C33.6979 25.1667 33.5104 25.2812 33.2812 25.2812C33.0729 25.2812 32.8958 25.3646 32.75 25.5312C32.625 25.5104 32.5208 25.5208 32.4375 25.5625C32.375 25.6042 32.3125 25.625 32.25 25.625C32.1667 25.625 32.0938 25.6146 32.0312 25.5938C31.9896 25.5729 31.9375 25.5625 31.875 25.5625C31.7708 25.5625 31.6667 25.6146 31.5625 25.7188C31.4583 25.8229 31.3542 25.875 31.25 25.875C31.1875 25.875 31.0729 25.8333 30.9062 25.75C30.7604 25.6667 30.5938 25.5625 30.4062 25.4375C30.2396 25.3333 30.0833 25.2188 29.9375 25.0938C29.7917 24.9896 29.7188 24.9062 29.7188 24.8438C29.6979 24.7396 29.6875 24.5938 29.6875 24.4062C29.6875 24.1562 29.6979 23.9167 29.7188 23.6875C29.7604 23.4375 29.8021 23.1875 29.8438 22.9375C29.9062 22.2292 29.9375 21.5312 29.9375 20.8438C29.9375 20.1354 29.9375 19.4271 29.9375 18.7188C29.9375 18.4271 29.9375 18.1354 29.9375 17.8438C29.9583 17.5521 29.9688 17.2604 29.9688 16.9688C29.9688 16.2812 29.9375 15.5938 29.875 14.9062C29.8333 14.1979 29.8125 13.5 29.8125 12.8125C29.8125 12.3333 29.8333 11.8646 29.875 11.4062C29.9167 10.9271 29.9375 10.4583 29.9375 10C29.9375 9.64583 29.9271 9.30208 29.9062 8.96875C29.8854 8.63542 29.875 8.29167 29.875 7.9375C29.8542 7.70833 29.8542 7.46875 29.875 7.21875C29.8958 6.94792 29.9062 6.69792 29.9062 6.46875C29.9062 6.19792 29.8646 5.94792 29.7812 5.71875C29.7188 5.46875 29.6875 5.23958 29.6875 5.03125C29.6875 4.90625 29.7083 4.79167 29.75 4.6875C29.8125 4.5625 29.8438 4.4375 29.8438 4.3125C29.8438 4.14583 29.8125 3.97917 29.75 3.8125C29.7083 3.64583 29.6875 3.47917 29.6875 3.3125C29.6875 3.14583 29.7083 2.98958 29.75 2.84375C29.7917 2.69792 29.8125 2.54167 29.8125 2.375C30.1042 2.22917 30.3646 2.15625 30.5938 2.15625C30.8229 2.15625 30.9896 2.23958 31.0938 2.40625C31.0938 2.78125 31.1146 3.07292 31.1562 3.28125C31.1979 3.46875 31.2292 3.66667 31.25 3.875C31.25 4 31.2396 4.14583 31.2188 4.3125C31.2188 4.47917 31.2292 4.64583 31.25 4.8125C31.2708 4.95833 31.3125 5.08333 31.375 5.1875C31.4583 5.29167 31.5938 5.34375 31.7812 5.34375C31.8229 5.44792 31.875 5.54167 31.9375 5.625C32 5.70833 32.0417 5.8125 32.0625 5.9375C32.1875 5.85417 32.2604 5.73958 32.2812 5.59375C32.3021 5.44792 32.3021 5.3125 32.2812 5.1875C32.3854 5.22917 32.4792 5.25 32.5625 5.25C32.6458 5.22917 32.7292 5.23958 32.8125 5.28125C32.8542 5.57292 32.9062 5.83333 32.9688 6.0625C33.0312 6.27083 33.0521 6.52083 33.0312 6.8125C33.4479 7.125 33.8021 7.57292 34.0938 8.15625C34.4062 8.71875 34.6979 9.22917 34.9688 9.6875C35.1146 9.91667 35.2812 10.1354 35.4688 10.3438C35.6771 10.5312 35.8333 10.7604 35.9375 11.0312C36.1042 11.1354 36.2396 11.2708 36.3438 11.4375C36.4479 11.6042 36.5417 11.7708 36.625 11.9375C37.0417 12.6667 37.5 13.375 38 14.0625C38.5 14.75 39.0208 15.4271 39.5625 16.0938C39.5833 15.9479 39.5938 15.8125 39.5938 15.6875C39.5938 15.5417 39.5938 15.3958 39.5938 15.25L39.5625 12.4375C39.5625 12.2708 39.5521 12.1146 39.5312 11.9688C39.5312 11.8229 39.5208 11.6667 39.5 11.5C39.4583 10.9583 39.4479 10.4271 39.4688 9.90625C39.4896 9.38542 39.4896 8.85417 39.4688 8.3125C39.4271 7.75 39.3958 7.17708 39.375 6.59375C39.375 6.01042 39.3542 5.42708 39.3125 4.84375C39.2917 4.48958 39.2708 4.13542 39.25 3.78125C39.2292 3.42708 39.2188 3.07292 39.2188 2.71875C39.2188 2.28125 39.2604 1.88542 39.3438 1.53125C39.3854 1.48958 39.4271 1.45833 39.4688 1.4375C39.5312 1.39583 39.6042 1.375 39.6875 1.375C39.8125 1.375 39.8958 1.47917 39.9375 1.6875ZM47.5 25.375C47.4167 25.2917 47.375 25.1771 47.375 25.0312C47.375 24.9271 47.375 24.8438 47.375 24.7812C47.3958 24.6979 47.4167 24.6042 47.4375 24.5C47.5417 24.0208 47.5938 23.5417 47.5938 23.0625C47.5938 22.5625 47.6146 22.0729 47.6562 21.5938C47.6771 21.3021 47.6875 21.0104 47.6875 20.7188C47.7083 20.4271 47.7188 20.1354 47.7188 19.8438C47.7188 18.1146 47.6667 16.3958 47.5625 14.6875C47.4583 12.9583 47.4062 11.2188 47.4062 9.46875C47.4062 8.26042 47.4271 7.05208 47.4688 5.84375C47.5104 4.61458 47.5417 3.38542 47.5625 2.15625C47.75 2.05208 47.9792 2.01042 48.25 2.03125C48.5208 2.05208 48.7396 1.95833 48.9062 1.75C49.0104 1.72917 49.1146 1.72917 49.2188 1.75C49.3229 1.75 49.4271 1.75 49.5312 1.75C49.7604 1.75 49.9792 1.67708 50.1875 1.53125C50.3958 1.38542 50.625 1.26042 50.875 1.15625C51 1.19792 51.0833 1.21875 51.125 1.21875C51.1875 1.19792 51.25 1.1875 51.3125 1.1875C51.375 1.1875 51.5104 1.26042 51.7188 1.40625C51.9271 1.55208 52.1562 1.71875 52.4062 1.90625C52.6562 2.09375 52.8854 2.27083 53.0938 2.4375C53.3229 2.60417 53.4688 2.70833 53.5312 2.75C54.0521 3.14583 54.5104 3.58333 54.9062 4.0625C55.3229 4.52083 55.7292 4.98958 56.125 5.46875C56.5 5.94792 56.9062 6.4375 57.3438 6.9375C57.7812 7.41667 58.2083 7.86458 58.625 8.28125C58.7708 8.44792 58.9167 8.59375 59.0625 8.71875C59.2292 8.84375 59.3854 8.98958 59.5312 9.15625C59.5938 9.23958 59.6458 9.33333 59.6875 9.4375C59.75 9.52083 59.8125 9.61458 59.875 9.71875C60 9.86458 60.1458 9.98958 60.3125 10.0938C60.4792 10.1979 60.6354 10.3229 60.7812 10.4688C60.8854 10.5521 61.0417 10.7188 61.25 10.9688C61.4583 11.2188 61.5625 11.4062 61.5625 11.5312C61.5625 11.6146 61.5417 11.6875 61.5 11.75C61.4583 11.8125 61.4167 11.8854 61.375 11.9688C61.3542 12.0312 61.3438 12.125 61.3438 12.25C61.3438 12.375 61.3333 12.4583 61.3125 12.5C61.1042 12.6667 60.9896 12.7708 60.9688 12.8125C60.9479 12.8542 60.9167 12.8958 60.875 12.9375C60.8125 13.0208 60.7292 13.0938 60.625 13.1562C60.5417 13.1979 60.4792 13.2708 60.4375 13.375C60.3958 13.4375 60.375 13.5 60.375 13.5625C60.3958 13.625 60.3854 13.6979 60.3438 13.7812C60.2396 14.0104 60.0729 14.2292 59.8438 14.4375C59.6146 14.6458 59.4167 14.875 59.25 15.125C59.0208 15.5 58.7917 15.875 58.5625 16.25C58.3333 16.625 58.0729 16.9896 57.7812 17.3438C57.6562 17.5104 57.5208 17.6771 57.375 17.8438C57.25 17.9896 57.125 18.1458 57 18.3125C56.8958 18.4375 56.8021 18.5729 56.7188 18.7188C56.6354 18.8438 56.5417 18.9896 56.4375 19.1562C56.2083 19.4479 55.9896 19.7396 55.7812 20.0312C55.5729 20.3021 55.3542 20.5833 55.125 20.875C54.875 21.2292 54.6042 21.5833 54.3125 21.9375C54.0208 22.2708 53.7604 22.6146 53.5312 22.9688C53.3021 23.3438 53.0625 23.6875 52.8125 24C52.5625 24.3125 52.2917 24.6146 52 24.9062C51.9167 24.9688 51.8125 25.0625 51.6875 25.1875C51.5625 25.3125 51.4375 25.375 51.3125 25.375C51.2292 25.375 51.1562 25.3438 51.0938 25.2812C51.0521 25.2188 50.9792 25.1875 50.875 25.1875C50.8542 25.1875 50.7917 25.1979 50.6875 25.2188C50.5833 25.2396 50.4583 25.2604 50.3125 25.2812L49.75 25.3438C49.4167 25.5104 49.1771 25.5833 49.0312 25.5625C48.8854 25.5625 48.7396 25.5729 48.5938 25.5938C48.5104 25.6146 48.4375 25.6458 48.375 25.6875C48.3333 25.7292 48.2812 25.75 48.2188 25.75C48.0729 25.75 47.9583 25.6771 47.875 25.5312C47.7917 25.4062 47.6667 25.3542 47.5 25.375ZM56.875 11.875C56.875 11.7708 56.7708 11.625 56.5625 11.4375C56.375 11.25 56.2292 11.1146 56.125 11.0312C55.9792 10.9062 55.8021 10.7917 55.5938 10.6875C55.4062 10.5625 55.25 10.4271 55.125 10.2812C55.0208 10.1562 54.9167 10.0312 54.8125 9.90625C54.7292 9.76042 54.6354 9.625 54.5312 9.5C54.1562 9.08333 53.7708 8.66667 53.375 8.25C53 7.83333 52.6667 7.375 52.375 6.875C52.1875 6.75 52.0104 6.60417 51.8438 6.4375C51.6771 6.27083 51.4792 6.13542 51.25 6.03125C51.2083 6.15625 51.1875 6.29167 51.1875 6.4375C51.2083 6.5625 51.2188 6.6875 51.2188 6.8125C51.2188 7.29167 51.1979 7.76042 51.1562 8.21875C51.1146 8.67708 51.0938 9.13542 51.0938 9.59375C51.0938 10.7188 51.1146 11.8333 51.1562 12.9375C51.2188 14.0208 51.25 15.1146 51.25 16.2188C51.25 16.6354 51.25 17.0521 51.25 17.4688C51.2708 17.8854 51.3125 18.3021 51.375 18.7188C51.3333 18.8438 51.3125 18.9583 51.3125 19.0625C51.3125 19.1667 51.3333 19.3021 51.375 19.4688C51.5417 19.3646 51.6771 19.2396 51.7812 19.0938C51.9062 18.9271 52.0208 18.7708 52.125 18.625C52.4792 18.1667 52.8229 17.7083 53.1562 17.25C53.5104 16.7708 53.8646 16.2917 54.2188 15.8125C54.4479 15.5 54.6771 15.1979 54.9062 14.9062C55.1562 14.5938 55.3958 14.2708 55.625 13.9375C55.6875 13.8542 55.7812 13.7083 55.9062 13.5C56.0521 13.2917 56.1875 13.0833 56.3125 12.875C56.4583 12.6458 56.5833 12.4375 56.6875 12.25C56.8125 12.0625 56.875 11.9375 56.875 11.875ZM67.9062 16.8125C67.9479 16.9167 68.0938 17.1354 68.3438 17.4688C68.6146 17.8021 68.9167 18.1667 69.25 18.5625C69.5833 18.9583 69.8958 19.3438 70.1875 19.7188C70.5 20.0729 70.7188 20.3333 70.8438 20.5C71.0729 20.7917 71.2917 21.0833 71.5 21.375C71.7292 21.6458 71.9375 21.9375 72.125 22.25L72.6875 23.1875C72.8542 23.3958 73 23.5729 73.125 23.7188C73.2708 23.8646 73.3854 24.0625 73.4688 24.3125C73.5104 24.4792 73.5312 24.5938 73.5312 24.6562C73.5312 24.8021 73.4792 24.9062 73.375 24.9688C73.2083 24.9688 73.1146 24.9896 73.0938 25.0312C73.0938 25.0938 73.0521 25.1458 72.9688 25.1875C72.8854 25.2292 72.75 25.25 72.5625 25.25C72.3958 25.2708 72.2604 25.2812 72.1562 25.2812C71.9688 25.2812 71.7292 25.2708 71.4375 25.25C71.1667 25.25 70.9479 25.2812 70.7812 25.3438C70.7396 25.3646 70.6771 25.3958 70.5938 25.4375C70.5104 25.4792 70.4479 25.5 70.4062 25.5C70.2396 25.5 70.1146 25.4688 70.0312 25.4062C69.9688 25.3646 69.875 25.3333 69.75 25.3125C69.5833 25.125 69.4375 24.9375 69.3125 24.75C69.2083 24.5417 69.0833 24.3333 68.9375 24.125C68.7917 23.9792 68.6458 23.8542 68.5 23.75C68.3542 23.625 68.2292 23.4896 68.125 23.3438C67.8125 22.8854 67.4896 22.4375 67.1562 22C66.8229 21.5625 66.4792 21.1354 66.125 20.7188C65.9583 20.4896 65.7812 20.2812 65.5938 20.0938C65.4062 19.9062 65.2292 19.6979 65.0625 19.4688C64.8958 19.2604 64.7396 19.0417 64.5938 18.8125C64.4479 18.5625 64.3021 18.3229 64.1562 18.0938C64.0312 17.9062 63.8646 17.6667 63.6562 17.375C63.4479 17.0625 63.2188 16.7604 62.9688 16.4688C62.7188 16.1562 62.4688 15.8646 62.2188 15.5938C61.9688 15.3229 61.7604 15.1146 61.5938 14.9688C61.5729 14.8438 61.5208 14.75 61.4375 14.6875C61.3542 14.6042 61.2604 14.5312 61.1562 14.4688C61.1146 14.3646 61.0729 14.2708 61.0312 14.1875C60.9688 14.0833 60.9375 13.9792 60.9375 13.875C60.9375 13.7292 60.9688 13.5938 61.0312 13.4688C61.0729 13.3854 61.1042 13.3125 61.125 13.25C61.125 13.1667 61.1458 13.0833 61.1875 13C61.2917 12.7708 61.4271 12.5521 61.5938 12.3438C61.7812 12.1146 61.9271 11.875 62.0312 11.625C62.0729 11.5625 62.0938 11.5 62.0938 11.4375C62.0938 11.3542 62.1146 11.2812 62.1562 11.2188C62.1979 11.0521 62.2812 10.9167 62.4062 10.8125C62.5521 10.6875 62.6667 10.5521 62.75 10.4062C62.8542 10.2396 62.9479 10.0729 63.0312 9.90625C63.1354 9.71875 63.2396 9.52083 63.3438 9.3125C63.6562 8.79167 63.9792 8.29167 64.3125 7.8125C64.6667 7.3125 65.0208 6.8125 65.375 6.3125C65.6458 5.89583 65.9062 5.5 66.1562 5.125C66.4271 4.72917 66.6979 4.33333 66.9688 3.9375C67.1146 3.75 67.2708 3.53125 67.4375 3.28125C67.6042 3.03125 67.7812 2.78125 67.9688 2.53125C68.1771 2.28125 68.3854 2.05208 68.5938 1.84375C68.8021 1.63542 69.0104 1.46875 69.2188 1.34375C69.5312 1.32292 69.7396 1.39583 69.8438 1.5625C69.9479 1.70833 70.1042 1.78125 70.3125 1.78125C70.5833 1.84375 70.7604 1.92708 70.8438 2.03125C70.9271 2.13542 71.0208 2.23958 71.125 2.34375C71.4167 2.34375 71.6458 2.39583 71.8125 2.5C72 2.60417 72.1771 2.76042 72.3438 2.96875C72.2812 3.19792 72.1875 3.40625 72.0625 3.59375C71.9375 3.76042 71.8229 3.9375 71.7188 4.125C71.5521 4.20833 71.4271 4.32292 71.3438 4.46875C71.2812 4.61458 71.1771 4.72917 71.0312 4.8125C70.8229 5.16667 70.6042 5.51042 70.375 5.84375C70.1458 6.15625 69.9167 6.46875 69.6875 6.78125C69.5625 6.96875 69.4271 7.13542 69.2812 7.28125C69.1562 7.42708 69.0417 7.58333 68.9375 7.75C68.8958 7.8125 68.8542 7.88542 68.8125 7.96875C68.7917 8.03125 68.7604 8.09375 68.7188 8.15625C68.4688 8.55208 68.1979 8.92708 67.9062 9.28125C67.6146 9.61458 67.3438 9.98958 67.0938 10.4062C67.0104 10.5521 66.9375 10.7083 66.875 10.875C66.8333 11.0208 66.7708 11.1667 66.6875 11.3125C66.6042 11.4375 66.4792 11.6042 66.3125 11.8125C66.1667 12.0208 66.0208 12.25 65.875 12.5C65.7292 12.7292 65.5938 12.9583 65.4688 13.1875C65.3646 13.3958 65.3125 13.5729 65.3125 13.7188C65.3333 13.8229 65.4583 14.0312 65.6875 14.3438C65.9375 14.6354 66.2083 14.9583 66.5 15.3125C66.8125 15.6458 67.1042 15.9688 67.375 16.2812C67.6458 16.5729 67.8229 16.75 67.9062 16.8125ZM69.9688 11.125C70.1146 11.4375 70.2708 11.7083 70.4375 11.9375C70.5 12.0208 70.5729 12.0938 70.6562 12.1562C70.7396 12.2188 70.8021 12.3021 70.8438 12.4062C70.8854 12.4479 70.9271 12.5417 70.9688 12.6875C71.0104 12.8125 71.0521 12.9062 71.0938 12.9688C71.1562 13.1354 71.2812 13.3229 71.4688 13.5312C71.6562 13.7396 71.75 13.9271 71.75 14.0938C71.75 14.1979 71.7292 14.3125 71.6875 14.4375C71.6458 14.5625 71.6146 14.6771 71.5938 14.7812C71.5729 14.9062 71.5625 15.0417 71.5625 15.1875C71.5625 15.3125 71.5208 15.4271 71.4375 15.5312C71.3333 15.6354 71.2188 15.6979 71.0938 15.7188C70.9688 15.7396 70.8542 15.7917 70.75 15.875C70.7083 15.9167 70.6458 15.9896 70.5625 16.0938C70.4792 16.1979 70.3958 16.3125 70.3125 16.4375C70.2292 16.5625 70.1458 16.6875 70.0625 16.8125C70 16.9167 69.9688 17 69.9688 17.0625C69.7188 17.0833 69.5521 17.0938 69.4688 17.0938C69.4062 17.0729 69.3333 17.0729 69.25 17.0938C69.1458 16.9896 69.0312 16.9062 68.9062 16.8438C68.8021 16.7604 68.6667 16.6875 68.5 16.625C68.4583 16.4583 68.3646 16.2708 68.2188 16.0625C68.0729 15.8333 67.9479 15.6458 67.8438 15.5L67.625 15.2188C67.3125 14.7812 67.0208 14.3646 66.75 13.9688C66.5 13.5521 66.3125 13.0938 66.1875 12.5938C66.5833 12.3021 66.8854 12.0833 67.0938 11.9375C67.3229 11.7917 67.5625 11.6562 67.8125 11.5312C68.0625 11.4062 68.3021 11.2917 68.5312 11.1875C68.7812 11.0625 69.0104 10.9167 69.2188 10.75C69.3854 10.75 69.5 10.7604 69.5625 10.7812C69.625 10.8021 69.6667 10.8229 69.6875 10.8438C69.7083 10.8646 69.7292 10.9062 69.75 10.9688C69.7917 11.0104 69.8646 11.0625 69.9688 11.125ZM89.3438 22C89.3229 22.3125 89.3854 22.5521 89.5312 22.7188C89.6979 22.8646 89.8333 23.0521 89.9375 23.2812C89.8958 23.5729 89.9271 23.8021 90.0312 23.9688C89.9688 24.0938 89.9062 24.2396 89.8438 24.4062C89.7812 24.5521 89.6875 24.6771 89.5625 24.7812C89.2292 24.9271 89.0312 25.0521 88.9688 25.1562C88.9062 25.2604 88.7812 25.3125 88.5938 25.3125C88.4896 25.4167 88.375 25.5208 88.25 25.625C88.125 25.75 88.0104 25.8646 87.9062 25.9688C87.8021 25.9271 87.7292 25.875 87.6875 25.8125C87.6458 25.75 87.5833 25.6667 87.5 25.5625C87.2917 25.5 87.1042 25.3854 86.9375 25.2188C86.7708 25.0729 86.625 24.9062 86.5 24.7188C86.375 24.5104 86.25 24.3021 86.125 24.0938C86.0208 23.8646 85.9271 23.6562 85.8438 23.4688C85.5521 22.9271 85.25 22.3854 84.9375 21.8438C84.6458 21.2812 84.3438 20.7292 84.0312 20.1875C83.8646 19.9167 83.6979 19.6458 83.5312 19.375C83.3854 19.0833 83.2292 18.7917 83.0625 18.5C83.0208 18.4583 82.9792 18.4167 82.9375 18.375C82.8958 18.3125 82.8542 18.25 82.8125 18.1875C82.6667 17.9792 82.5521 17.75 82.4688 17.5C82.4062 17.2292 82.2604 17.0104 82.0312 16.8438C81.6354 16.8021 81.2708 16.8646 80.9375 17.0312C80.625 17.1771 80.3438 17.375 80.0938 17.625C80.1146 17.7708 80.125 17.9062 80.125 18.0312C80.125 18.1562 80.125 18.2812 80.125 18.4062C80.125 18.8854 80.1042 19.3438 80.0625 19.7812C80.0208 20.2188 80 20.6771 80 21.1562C80 21.3646 80.0104 21.5833 80.0312 21.8125C80.0521 22.0208 80.0833 22.2292 80.125 22.4375C80.0625 22.6667 80.0312 22.9167 80.0312 23.1875C80.0312 23.3333 80.0417 23.4688 80.0625 23.5938C80.1042 23.7188 80.125 23.8542 80.125 24C80.125 24.2083 80.0521 24.3542 79.9062 24.4375C79.7812 24.5 79.7396 24.625 79.7812 24.8125C79.5312 24.9167 79.2917 25.0208 79.0625 25.125C78.8333 25.2292 78.5938 25.3021 78.3438 25.3438C78.2396 25.3646 78.1354 25.3646 78.0312 25.3438C77.9271 25.3438 77.8333 25.3646 77.75 25.4062C77.6458 25.4479 77.5625 25.5208 77.5 25.625C77.4375 25.75 77.3542 25.8125 77.25 25.8125C77.125 25.8125 77.0521 25.7604 77.0312 25.6562C77.0104 25.5729 76.9688 25.5 76.9062 25.4375C76.8021 25.3958 76.7188 25.375 76.6562 25.375C76.5938 25.375 76.5312 25.3438 76.4688 25.2812C76.4896 25.0938 76.4479 24.9583 76.3438 24.875C76.2396 24.7708 76.1875 24.5729 76.1875 24.2812C76.1875 24.0521 76.1979 23.8333 76.2188 23.625C76.2604 23.4167 76.2812 23.1979 76.2812 22.9688C76.2812 22.7812 76.25 22.6146 76.1875 22.4688C76.1458 22.3021 76.1042 22.125 76.0625 21.9375C76.0417 21.8542 76.0417 21.7708 76.0625 21.6875C76.0833 21.6042 76.0938 21.5208 76.0938 21.4375C76.0938 21.0625 76.0729 20.6875 76.0312 20.3125C76.0104 19.9167 76 19.5312 76 19.1562C76 19.0104 76 18.875 76 18.75C76 18.625 76.0104 18.5 76.0312 18.375C76.0729 18.25 76.1042 18.1458 76.125 18.0625C76.1667 17.9792 76.1875 17.875 76.1875 17.75C76.1875 17.3542 76.1458 16.9688 76.0625 16.5938C75.9792 16.1979 75.9375 15.8125 75.9375 15.4375C75.9375 15.2292 75.9375 15.0208 75.9375 14.8125C75.9583 14.5833 75.9688 14.3646 75.9688 14.1562C75.9688 13.5521 75.9583 12.9583 75.9375 12.375C75.9167 11.7917 75.9062 11.2083 75.9062 10.625C75.9062 10.2083 75.9167 9.80208 75.9375 9.40625C75.9583 8.98958 75.9688 8.57292 75.9688 8.15625C75.9688 7.63542 75.9479 7.125 75.9062 6.625C75.8646 6.10417 75.8438 5.57292 75.8438 5.03125C75.8438 4.84375 75.8333 4.71875 75.8125 4.65625C75.7917 4.59375 75.7604 4.5625 75.7188 4.5625C75.6771 4.54167 75.625 4.53125 75.5625 4.53125C75.5208 4.51042 75.4792 4.46875 75.4375 4.40625C75.4375 4.28125 75.4896 4.19792 75.5938 4.15625C75.6979 4.09375 75.75 3.91667 75.75 3.625C75.75 3.45833 75.7292 3.29167 75.6875 3.125C75.6667 2.95833 75.6562 2.79167 75.6562 2.625C75.6562 2.375 75.7083 2.125 75.8125 1.875C75.9167 1.625 76.0104 1.38542 76.0938 1.15625C76.3438 1.13542 76.5104 1.13542 76.5938 1.15625C76.6979 1.17708 76.8021 1.16667 76.9062 1.125C76.9688 1.35417 77.1042 1.47917 77.3125 1.5C77.5208 1.5 77.7083 1.52083 77.875 1.5625C78.0625 1.58333 78.2396 1.63542 78.4062 1.71875C78.5938 1.78125 78.7708 1.8125 78.9375 1.8125C78.9792 1.9375 79.0625 2.03125 79.1875 2.09375C79.3333 2.13542 79.4792 2.17708 79.625 2.21875C79.7917 2.19792 79.9167 2.125 80 2C80.1042 1.875 80.2396 1.8125 80.4062 1.8125C80.5312 1.8125 80.6771 1.90625 80.8438 2.09375C81.0104 2.26042 81.1354 2.39583 81.2188 2.5C81.3021 2.5625 81.4583 2.69792 81.6875 2.90625C81.9167 3.11458 82.1667 3.33333 82.4375 3.5625C82.7083 3.77083 82.9583 3.97917 83.1875 4.1875C83.4167 4.375 83.5625 4.47917 83.625 4.5C84.4792 5.35417 85.2708 6.13542 86 6.84375C86.75 7.53125 87.5625 8.15625 88.4375 8.71875C88.4583 8.78125 88.4792 8.83333 88.5 8.875C88.5417 8.91667 88.5833 8.96875 88.625 9.03125C88.625 9.19792 88.5938 9.32292 88.5312 9.40625C88.4688 9.48958 88.4375 9.59375 88.4375 9.71875C88.4375 9.78125 88.4479 9.84375 88.4688 9.90625C88.5104 9.96875 88.5312 10.0312 88.5312 10.0938C88.5521 10.1771 88.5521 10.2604 88.5312 10.3438C88.5312 10.4062 88.5312 10.4792 88.5312 10.5625C88.5312 10.7708 88.5938 10.9583 88.7188 11.125C88.8646 11.2917 88.9375 11.4792 88.9375 11.6875C88.8958 11.875 88.8125 11.9896 88.6875 12.0312C88.5625 12.0729 88.4583 12.125 88.375 12.1875C88.3333 12.2292 88.2917 12.2812 88.25 12.3438C88.2292 12.4062 88.1979 12.4583 88.1562 12.5C87.6979 12.7083 87.3646 12.9062 87.1562 13.0938C86.9479 13.2604 86.7292 13.4271 86.5 13.5938C86.4375 13.6354 86.3333 13.7083 86.1875 13.8125C86.0417 13.8958 85.8958 13.9896 85.75 14.0938C85.6042 14.1771 85.4688 14.2708 85.3438 14.375C85.2396 14.4792 85.1875 14.5625 85.1875 14.625C85.1875 14.7708 85.2708 14.9792 85.4375 15.25C85.625 15.5 85.7604 15.6979 85.8438 15.8438C86.0729 16.2188 86.2812 16.5938 86.4688 16.9688C86.6562 17.3229 86.8646 17.6771 87.0938 18.0312C87.5104 18.6771 87.8958 19.3333 88.25 20C88.625 20.6667 88.9896 21.3333 89.3438 22ZM84.25 10.375C83.7708 9.77083 83.25 9.22917 82.6875 8.75C82.1458 8.25 81.625 7.72917 81.125 7.1875L80.7812 7.125C80.6562 6.91667 80.5104 6.73958 80.3438 6.59375C80.1979 6.42708 80.0417 6.26042 79.875 6.09375C79.8958 6.32292 79.9062 6.54167 79.9062 6.75C79.9062 6.95833 79.9062 7.17708 79.9062 7.40625C79.9062 8.07292 79.8854 8.72917 79.8438 9.375C79.8229 10 79.8125 10.6354 79.8125 11.2812C79.8125 11.9271 79.8438 12.5417 79.9062 13.125C80.3438 13.125 80.7396 13 81.0938 12.75C81.2396 12.6458 81.375 12.5417 81.5 12.4375C81.625 12.3125 81.7604 12.1979 81.9062 12.0938C82.0729 11.9896 82.2604 11.8646 82.4688 11.7188C82.6979 11.5729 82.9167 11.4271 83.125 11.2812C83.3542 11.1354 83.5625 10.9896 83.75 10.8438C83.9583 10.6771 84.125 10.5208 84.25 10.375ZM105.5 2.28125C105.583 2.26042 105.656 2.22917 105.719 2.1875C105.781 2.14583 105.854 2.125 105.938 2.125C106 2.14583 106.042 2.1875 106.062 2.25C106.104 2.3125 106.156 2.36458 106.219 2.40625C106.281 2.36458 106.333 2.32292 106.375 2.28125C106.438 2.23958 106.5 2.20833 106.562 2.1875C106.771 2.25 106.885 2.35417 106.906 2.5C107.01 2.54167 107.104 2.59375 107.188 2.65625C107.271 2.69792 107.365 2.72917 107.469 2.75C107.51 2.83333 107.562 2.89583 107.625 2.9375C107.688 2.97917 107.76 3.04167 107.844 3.125C108.052 3.16667 108.323 3.28125 108.656 3.46875C109.01 3.65625 109.292 3.80208 109.5 3.90625C109.708 4.01042 109.917 4.11458 110.125 4.21875C110.333 4.32292 110.531 4.4375 110.719 4.5625C110.906 4.66667 111.094 4.79167 111.281 4.9375C111.469 5.0625 111.667 5.16667 111.875 5.25C112.062 5.47917 112.302 5.625 112.594 5.6875C112.885 5.75 113.146 5.86458 113.375 6.03125C113.562 6.13542 113.74 6.25 113.906 6.375C114.073 6.47917 114.24 6.58333 114.406 6.6875C114.469 6.79167 114.542 6.875 114.625 6.9375C114.729 7 114.823 7.08333 114.906 7.1875C115.323 7.41667 115.562 7.59375 115.625 7.71875C115.688 7.76042 115.781 7.82292 115.906 7.90625C116.031 7.98958 116.156 8.08333 116.281 8.1875C116.406 8.27083 116.521 8.36458 116.625 8.46875C116.729 8.55208 116.792 8.63542 116.812 8.71875C116.729 8.90625 116.688 9.0625 116.688 9.1875C116.688 9.29167 116.646 9.38542 116.562 9.46875C116.688 9.63542 116.75 9.79167 116.75 9.9375C116.646 10.1875 116.469 10.3958 116.219 10.5625C116.156 10.7292 116.052 10.8646 115.906 10.9688C115.781 11.0521 115.698 11.1771 115.656 11.3438C115.49 11.4479 115.385 11.5312 115.344 11.5938C115.323 11.6562 115.292 11.7188 115.25 11.7812C114.854 12.1979 114.479 12.5625 114.125 12.875C113.792 13.1667 113.479 13.4896 113.188 13.8438C112.979 13.9479 112.802 14.0833 112.656 14.25C112.51 14.3958 112.375 14.5625 112.25 14.75C112.083 14.9167 111.917 15.0833 111.75 15.25C111.604 15.3958 111.448 15.5417 111.281 15.6875C111.24 15.7708 111.167 15.8438 111.062 15.9062C110.979 15.9479 110.917 16.0208 110.875 16.125C110.646 16.2292 110.458 16.375 110.312 16.5625C110.167 16.75 109.99 16.9062 109.781 17.0312L109.562 17.3438C109.5 17.3854 109.406 17.4583 109.281 17.5625C109.177 17.6458 109.062 17.75 108.938 17.875C108.833 17.9792 108.74 18.0833 108.656 18.1875C108.573 18.2917 108.521 18.375 108.5 18.4375C108.438 18.4583 108.333 18.5208 108.188 18.625C108.062 18.7292 107.927 18.8438 107.781 18.9688C107.656 19.0938 107.531 19.2188 107.406 19.3438C107.302 19.4688 107.24 19.5521 107.219 19.5938L106.906 19.8125C106.927 20.375 106.938 20.9479 106.938 21.5312C106.958 22.0938 106.969 22.6562 106.969 23.2188V24.2812L106.75 24.5625C106.646 24.5625 106.562 24.5417 106.5 24.5C106.438 24.4583 106.365 24.4375 106.281 24.4375C106.198 24.4375 106.115 24.4792 106.031 24.5625C105.969 24.6458 105.906 24.7083 105.844 24.75C105.698 24.7708 105.573 24.8125 105.469 24.875C105.385 24.9167 105.292 24.9583 105.188 25C105.062 24.9375 104.938 24.9062 104.812 24.9062C104.542 24.9688 104.406 24.9792 104.406 24.9375C104.427 24.8958 104.385 24.875 104.281 24.875C104.115 25.0417 104.01 25.125 103.969 25.125C103.885 25.125 103.802 25.1354 103.719 25.1562C103.656 25.1771 103.583 25.1875 103.5 25.1875C103.417 25.0208 103.344 24.8542 103.281 24.6875C103.24 24.5 103.146 24.3229 103 24.1562C103.062 23.9479 103.052 23.8021 102.969 23.7188C103.094 23.4896 103.146 23.2292 103.125 22.9375C103.104 22.6458 103.094 22.375 103.094 22.125C103.094 21.9792 103.094 21.8438 103.094 21.7188C103.115 21.5729 103.125 21.4375 103.125 21.3125C103.125 21.0625 103.104 20.8125 103.062 20.5625C103.021 20.2917 103 20.0208 103 19.75C103 19.125 103.021 18.5 103.062 17.875C103.104 17.2292 103.125 16.5938 103.125 15.9688C103.125 15.6146 103.104 15.25 103.062 14.875C103.042 14.5 103.031 14.1354 103.031 13.7812C103.031 13.5521 103.042 13.3438 103.062 13.1562C103.083 12.9479 103.104 12.75 103.125 12.5625C103.125 11.6042 103.135 10.6875 103.156 9.8125C103.198 8.91667 103.219 8.03125 103.219 7.15625C103.219 6.86458 103.208 6.59375 103.188 6.34375C103.188 6.07292 103.188 5.79167 103.188 5.5C103.188 5.35417 103.198 5.20833 103.219 5.0625C103.24 4.91667 103.25 4.77083 103.25 4.625C103.312 3.97917 103.344 3.33333 103.344 2.6875L103.312 2.1875C103.396 2.0625 103.521 2 103.688 2C103.917 2 104.094 2.07292 104.219 2.21875C104.365 2.19792 104.5 2.17708 104.625 2.15625C104.771 2.11458 104.906 2.09375 105.031 2.09375C105.219 2.09375 105.375 2.15625 105.5 2.28125ZM107.344 7.25C107.344 7.35417 107.333 7.4375 107.312 7.5C107.292 7.54167 107.271 7.58333 107.25 7.625C107.25 7.6875 107.25 7.76042 107.25 7.84375C107.271 7.90625 107.281 7.97917 107.281 8.0625C107.281 8.54167 107.271 9.02083 107.25 9.5C107.25 9.95833 107.25 10.4167 107.25 10.875L107.188 12.5312C107.188 12.6354 107.198 12.75 107.219 12.875C107.24 13 107.25 13.1146 107.25 13.2188C107.25 13.3229 107.24 13.4271 107.219 13.5312C107.198 13.6354 107.188 13.7396 107.188 13.8438C107.188 14.1146 107.219 14.3854 107.281 14.6562C107.385 14.6146 107.458 14.5521 107.5 14.4688C107.542 14.3646 107.594 14.2812 107.656 14.2188C108.135 13.7812 108.583 13.3229 109 12.8438C109.417 12.3646 109.844 11.8854 110.281 11.4062C110.656 11.0104 110.979 10.6875 111.25 10.4375C111.521 10.1875 111.729 9.88542 111.875 9.53125C111.521 9.30208 111.156 9.07292 110.781 8.84375C110.406 8.59375 110.01 8.38542 109.594 8.21875C109.573 8.17708 109.51 8.125 109.406 8.0625C109.323 8 109.229 7.94792 109.125 7.90625C109.021 7.84375 108.917 7.79167 108.812 7.75C108.708 7.70833 108.635 7.6875 108.594 7.6875C108.406 7.52083 108.208 7.41667 108 7.375C107.854 7.375 107.729 7.35417 107.625 7.3125C107.521 7.25 107.448 7.19792 107.406 7.15625L107.344 7.25ZM124.875 1.34375C124.979 1.71875 125.083 2.09375 125.188 2.46875C125.292 2.82292 125.417 3.17708 125.562 3.53125C125.875 3.57292 126.062 3.60417 126.125 3.625C126.208 3.64583 126.302 3.67708 126.406 3.71875C126.635 4.26042 126.771 4.84375 126.812 5.46875C126.875 6.07292 126.958 6.66667 127.062 7.25C127.458 7.77083 127.74 8.33333 127.906 8.9375C128.094 9.52083 128.302 10.1146 128.531 10.7188C128.594 10.9271 128.635 11.0625 128.656 11.125C128.677 11.1667 128.688 11.2083 128.688 11.25C128.812 11.6042 128.938 11.9688 129.062 12.3438C129.188 12.7188 129.323 13.0833 129.469 13.4375C129.531 13.625 129.594 13.8125 129.656 14C129.74 14.1667 129.812 14.3333 129.875 14.5C129.938 14.7083 129.99 14.9271 130.031 15.1562C130.094 15.3646 130.156 15.5729 130.219 15.7812C130.365 16.1979 130.521 16.6146 130.688 17.0312C130.854 17.4479 131.021 17.8646 131.188 18.2812C131.25 18.4271 131.365 18.75 131.531 19.25C131.719 19.75 131.906 20.2812 132.094 20.8438C132.281 21.3854 132.448 21.8958 132.594 22.375C132.76 22.8333 132.844 23.1146 132.844 23.2188C132.844 23.3854 132.854 23.5625 132.875 23.75C132.917 23.9167 132.948 24.0938 132.969 24.2812C132.885 24.4896 132.781 24.6042 132.656 24.625C132.531 24.6458 132.417 24.6354 132.312 24.5938C132.208 24.6354 132.104 24.6771 132 24.7188C131.917 24.7604 131.833 24.8021 131.75 24.8438C131.688 24.8646 131.635 24.8958 131.594 24.9375C131.552 24.9792 131.5 25 131.438 25C131.188 25 131.021 25.0208 130.938 25.0625C130.875 25.125 130.771 25.1562 130.625 25.1562C130.438 25.0938 130.312 25.0833 130.25 25.125C130.208 25.1875 130.167 25.2292 130.125 25.25C130.042 25.2917 129.948 25.3125 129.844 25.3125C129.74 25.3125 129.635 25.3229 129.531 25.3438C129.49 25.2604 129.448 25.1771 129.406 25.0938C129.385 25.0104 129.344 24.9167 129.281 24.8125C129.052 24.4792 128.885 24.1562 128.781 23.8438C128.698 23.5312 128.625 23.2812 128.562 23.0938C128.458 22.8646 128.365 22.6354 128.281 22.4062C128.219 22.1771 128.135 21.9479 128.031 21.7188C127.906 21.7604 127.792 21.8125 127.688 21.875C127.583 21.9167 127.5 21.9792 127.438 22.0625C127.188 22.0625 127.062 22.0938 127.062 22.1562C127.062 22.2188 127.042 22.2812 127 22.3438C126.875 22.3854 126.771 22.4271 126.688 22.4688C126.625 22.5104 126.51 22.5208 126.344 22.5C126.24 22.6042 126.135 22.6979 126.031 22.7812C125.927 22.8438 125.792 22.8854 125.625 22.9062C125.458 23.0729 125.281 23.2188 125.094 23.3438C124.927 23.4479 124.729 23.4688 124.5 23.4062C124.208 23.4688 123.917 23.5312 123.625 23.5938C123.333 23.6354 123.042 23.6562 122.75 23.6562C122.417 23.5521 122.208 23.4583 122.125 23.375C122.042 23.2917 121.917 23.25 121.75 23.25C121.771 22.9583 121.708 22.7604 121.562 22.6562C121.562 22.5938 121.562 22.5 121.562 22.375C121.583 22.2292 121.615 22.1354 121.656 22.0938C121.927 21.9688 122.083 21.8333 122.125 21.6875C122.167 21.5417 122.281 21.4479 122.469 21.4062C122.51 21.3229 122.552 21.25 122.594 21.1875C122.656 21.1042 122.708 21.0208 122.75 20.9375C122.854 20.8958 122.938 20.8646 123 20.8438C123.083 20.8229 123.146 20.7604 123.188 20.6562C123.292 20.6562 123.448 20.5938 123.656 20.4688C123.865 20.3229 124 20.2083 124.062 20.125C124.229 20.0625 124.333 20.0104 124.375 19.9688C124.417 19.9062 124.469 19.8542 124.531 19.8125C124.74 19.8333 124.875 19.8125 124.938 19.75C125.104 19.8333 125.292 19.875 125.5 19.875C125.583 19.875 125.656 19.875 125.719 19.875C125.781 19.8542 125.854 19.8438 125.938 19.8438C126.104 19.6771 126.312 19.5729 126.562 19.5312C126.833 19.4688 127.052 19.3542 127.219 19.1875C127.156 19.0208 127.104 18.8229 127.062 18.5938C127.021 18.3438 126.948 18.1458 126.844 18C126.802 17.7292 126.729 17.4688 126.625 17.2188C126.542 16.9688 126.469 16.7292 126.406 16.5C126.177 15.625 125.906 14.7708 125.594 13.9375C125.281 13.1042 125.021 12.25 124.812 11.375C124.771 11.2708 124.719 11.1667 124.656 11.0625C124.615 10.9375 124.573 10.8229 124.531 10.7188C124.427 10.9688 124.375 11.1146 124.375 11.1562C124.375 11.1771 124.354 11.2083 124.312 11.25C124.292 11.3542 124.271 11.4479 124.25 11.5312C124.229 11.5938 124.198 11.6771 124.156 11.7812C124.094 11.9479 124.031 12.1354 123.969 12.3438C123.927 12.5312 123.885 12.7083 123.844 12.875C123.74 13.2292 123.646 13.6042 123.562 14C123.479 14.375 123.385 14.75 123.281 15.125C123.073 15.7708 122.854 16.4167 122.625 17.0625C122.417 17.6875 122.208 18.3229 122 18.9688C121.958 19.2604 121.906 19.4896 121.844 19.6562C121.802 19.8021 121.75 19.9583 121.688 20.125C121.646 20.2708 121.604 20.4167 121.562 20.5625C121.542 20.7083 121.531 20.8229 121.531 20.9062C121.24 21.5729 120.99 22.25 120.781 22.9375C120.594 23.625 120.354 24.2917 120.062 24.9375C119.979 24.9792 119.906 25.0312 119.844 25.0938C119.781 25.1562 119.708 25.1875 119.625 25.1875C119.458 25.1875 119.365 25.1458 119.344 25.0625C119.344 24.9792 119.302 24.9375 119.219 24.9375C119.135 24.9375 119.062 24.9583 119 25C118.938 25.0208 118.875 25.0521 118.812 25.0938C118.708 25.0521 118.583 25.0208 118.438 25C118.312 25 118.219 24.9583 118.156 24.875C118.01 24.9792 117.865 25.0312 117.719 25.0312C117.552 25.0312 117.385 24.9792 117.219 24.875C117.094 24.9167 116.969 24.9375 116.844 24.9375C116.781 24.9375 116.708 24.9271 116.625 24.9062C116.542 24.8854 116.479 24.8542 116.438 24.8125C116.417 24.7292 116.406 24.6458 116.406 24.5625C116.406 24.4792 116.406 24.3854 116.406 24.2812C116.406 24.0729 116.385 23.9167 116.344 23.8125C116.719 22.75 117.083 21.6771 117.438 20.5938C117.792 19.4896 118.146 18.375 118.5 17.25C118.688 16.7292 118.865 16.2188 119.031 15.7188C119.219 15.2188 119.396 14.7083 119.562 14.1875C119.646 13.8958 119.719 13.625 119.781 13.375C119.844 13.1042 119.927 12.8438 120.031 12.5938C120.198 12.0521 120.365 11.5104 120.531 10.9688C120.719 10.4062 120.885 9.85417 121.031 9.3125C121.115 9.25 121.167 9.17708 121.188 9.09375C121.208 9.01042 121.24 8.91667 121.281 8.8125L121.25 8.40625C121.396 8.19792 121.49 8.02083 121.531 7.875C121.594 7.70833 121.635 7.54167 121.656 7.375C121.76 7.125 121.854 6.85417 121.938 6.5625C122.021 6.27083 122.083 6 122.125 5.75C122.167 5.41667 122.188 5.04167 122.188 4.625C122.208 4.1875 122.271 3.82292 122.375 3.53125C122.417 3.44792 122.448 3.39583 122.469 3.375C122.51 3.33333 122.531 3.26042 122.531 3.15625C122.573 3.11458 122.615 3.07292 122.656 3.03125C122.719 2.96875 122.76 2.90625 122.781 2.84375C122.885 2.67708 122.917 2.53125 122.875 2.40625C122.854 2.28125 122.844 2.14583 122.844 2C123.031 1.89583 123.115 1.80208 123.094 1.71875C123.073 1.63542 123.062 1.55208 123.062 1.46875C123.062 1.36458 123.125 1.27083 123.25 1.1875C123.396 1.08333 123.49 0.979167 123.531 0.875C123.656 0.895833 123.781 0.916667 123.906 0.9375C124.031 0.9375 124.156 0.927083 124.281 0.90625C124.427 1.17708 124.604 1.3125 124.812 1.3125L124.875 1.34375ZM144.969 1.6875C145.302 1.64583 145.552 1.67708 145.719 1.78125C145.906 1.86458 146.094 1.91667 146.281 1.9375C146.385 1.95833 146.49 1.96875 146.594 1.96875C146.719 1.94792 146.844 1.9375 146.969 1.9375C147.24 1.9375 147.448 1.96875 147.594 2.03125C147.76 2.09375 147.927 2.22917 148.094 2.4375C148.135 2.47917 148.188 2.54167 148.25 2.625C148.333 2.6875 148.375 2.75 148.375 2.8125C148.375 2.97917 148.333 3.125 148.25 3.25C148.167 3.375 148.125 3.55208 148.125 3.78125C148.125 4.13542 148.167 4.48958 148.25 4.84375C148.333 5.17708 148.385 5.52083 148.406 5.875C148.51 7.16667 148.562 8.46875 148.562 9.78125C148.583 11.0729 148.594 12.3542 148.594 13.625C148.594 13.7917 148.583 13.9479 148.562 14.0938C148.562 14.2188 148.521 14.3333 148.438 14.4375V14.8438C148.417 15.3854 148.427 15.9375 148.469 16.5C148.51 17.0417 148.531 17.5833 148.531 18.125C148.531 18.6042 148.5 19.0833 148.438 19.5625C148.396 20.0417 148.375 20.5312 148.375 21.0312C148.375 21.4896 148.406 21.9375 148.469 22.375C148.531 22.8125 148.562 23.2604 148.562 23.7188C148.458 23.9062 148.396 24.0521 148.375 24.1562C148.354 24.2604 148.312 24.3542 148.25 24.4375C148.188 24.4792 148.115 24.4896 148.031 24.4688C147.969 24.4479 147.917 24.4688 147.875 24.5312C147.771 24.6562 147.698 24.8021 147.656 24.9688C147.615 25.1354 147.51 25.2708 147.344 25.375C147.302 25.6667 147.188 25.8854 147 26.0312C146.833 26.1979 146.708 26.4062 146.625 26.6562C146.375 26.6771 146.198 26.6667 146.094 26.625C146.01 26.5833 145.917 26.5417 145.812 26.5C145.792 26.1458 145.792 25.8854 145.812 25.7188C145.854 25.5729 145.875 25.4167 145.875 25.25C145.875 25.0417 145.823 24.8854 145.719 24.7812C145.615 24.6771 145.542 24.5417 145.5 24.375C145.271 24.2292 145.115 24.1354 145.031 24.0938C144.948 24.0312 144.875 23.9583 144.812 23.875C144.688 23.7083 144.583 23.5312 144.5 23.3438C144.417 23.1562 144.323 22.9792 144.219 22.8125C143.927 22.3333 143.625 21.8438 143.312 21.3438C143.021 20.8438 142.698 20.3542 142.344 19.875C142.281 19.7708 142.208 19.6771 142.125 19.5938C142.042 19.5104 141.969 19.4167 141.906 19.3125C141.552 18.75 141.219 18.1771 140.906 17.5938C140.594 17.0104 140.229 16.4583 139.812 15.9375C139.646 15.7292 139.521 15.5 139.438 15.25C139.354 14.9792 139.229 14.75 139.062 14.5625C139.042 14.6667 139.031 14.7812 139.031 14.9062C139.031 15.0312 139.031 15.1458 139.031 15.25C139.031 15.9583 139.042 16.6667 139.062 17.375C139.104 18.0625 139.125 18.7604 139.125 19.4688C139.125 19.6146 139.104 19.75 139.062 19.875C139.042 19.9792 139.031 20.1042 139.031 20.25C139.031 20.4583 139.042 20.6562 139.062 20.8438C139.083 21.0312 139.094 21.2188 139.094 21.4062C139.094 21.6354 139.083 21.8542 139.062 22.0625C139.062 22.2708 139.052 22.4792 139.031 22.6875C138.99 22.9583 138.938 23.2188 138.875 23.4688C138.812 23.6979 138.781 23.9375 138.781 24.1875C138.781 24.3333 138.792 24.4688 138.812 24.5938C138.854 24.7188 138.875 24.8333 138.875 24.9375C138.729 25.1667 138.542 25.2812 138.312 25.2812C138.104 25.2812 137.927 25.3646 137.781 25.5312C137.656 25.5104 137.552 25.5208 137.469 25.5625C137.406 25.6042 137.344 25.625 137.281 25.625C137.198 25.625 137.125 25.6146 137.062 25.5938C137.021 25.5729 136.969 25.5625 136.906 25.5625C136.802 25.5625 136.698 25.6146 136.594 25.7188C136.49 25.8229 136.385 25.875 136.281 25.875C136.219 25.875 136.104 25.8333 135.938 25.75C135.792 25.6667 135.625 25.5625 135.438 25.4375C135.271 25.3333 135.115 25.2188 134.969 25.0938C134.823 24.9896 134.75 24.9062 134.75 24.8438C134.729 24.7396 134.719 24.5938 134.719 24.4062C134.719 24.1562 134.729 23.9167 134.75 23.6875C134.792 23.4375 134.833 23.1875 134.875 22.9375C134.938 22.2292 134.969 21.5312 134.969 20.8438C134.969 20.1354 134.969 19.4271 134.969 18.7188C134.969 18.4271 134.969 18.1354 134.969 17.8438C134.99 17.5521 135 17.2604 135 16.9688C135 16.2812 134.969 15.5938 134.906 14.9062C134.865 14.1979 134.844 13.5 134.844 12.8125C134.844 12.3333 134.865 11.8646 134.906 11.4062C134.948 10.9271 134.969 10.4583 134.969 10C134.969 9.64583 134.958 9.30208 134.938 8.96875C134.917 8.63542 134.906 8.29167 134.906 7.9375C134.885 7.70833 134.885 7.46875 134.906 7.21875C134.927 6.94792 134.938 6.69792 134.938 6.46875C134.938 6.19792 134.896 5.94792 134.812 5.71875C134.75 5.46875 134.719 5.23958 134.719 5.03125C134.719 4.90625 134.74 4.79167 134.781 4.6875C134.844 4.5625 134.875 4.4375 134.875 4.3125C134.875 4.14583 134.844 3.97917 134.781 3.8125C134.74 3.64583 134.719 3.47917 134.719 3.3125C134.719 3.14583 134.74 2.98958 134.781 2.84375C134.823 2.69792 134.844 2.54167 134.844 2.375C135.135 2.22917 135.396 2.15625 135.625 2.15625C135.854 2.15625 136.021 2.23958 136.125 2.40625C136.125 2.78125 136.146 3.07292 136.188 3.28125C136.229 3.46875 136.26 3.66667 136.281 3.875C136.281 4 136.271 4.14583 136.25 4.3125C136.25 4.47917 136.26 4.64583 136.281 4.8125C136.302 4.95833 136.344 5.08333 136.406 5.1875C136.49 5.29167 136.625 5.34375 136.812 5.34375C136.854 5.44792 136.906 5.54167 136.969 5.625C137.031 5.70833 137.073 5.8125 137.094 5.9375C137.219 5.85417 137.292 5.73958 137.312 5.59375C137.333 5.44792 137.333 5.3125 137.312 5.1875C137.417 5.22917 137.51 5.25 137.594 5.25C137.677 5.22917 137.76 5.23958 137.844 5.28125C137.885 5.57292 137.938 5.83333 138 6.0625C138.062 6.27083 138.083 6.52083 138.062 6.8125C138.479 7.125 138.833 7.57292 139.125 8.15625C139.438 8.71875 139.729 9.22917 140 9.6875C140.146 9.91667 140.312 10.1354 140.5 10.3438C140.708 10.5312 140.865 10.7604 140.969 11.0312C141.135 11.1354 141.271 11.2708 141.375 11.4375C141.479 11.6042 141.573 11.7708 141.656 11.9375C142.073 12.6667 142.531 13.375 143.031 14.0625C143.531 14.75 144.052 15.4271 144.594 16.0938C144.615 15.9479 144.625 15.8125 144.625 15.6875C144.625 15.5417 144.625 15.3958 144.625 15.25L144.594 12.4375C144.594 12.2708 144.583 12.1146 144.562 11.9688C144.562 11.8229 144.552 11.6667 144.531 11.5C144.49 10.9583 144.479 10.4271 144.5 9.90625C144.521 9.38542 144.521 8.85417 144.5 8.3125C144.458 7.75 144.427 7.17708 144.406 6.59375C144.406 6.01042 144.385 5.42708 144.344 4.84375C144.323 4.48958 144.302 4.13542 144.281 3.78125C144.26 3.42708 144.25 3.07292 144.25 2.71875C144.25 2.28125 144.292 1.88542 144.375 1.53125C144.417 1.48958 144.458 1.45833 144.5 1.4375C144.562 1.39583 144.635 1.375 144.719 1.375C144.844 1.375 144.927 1.47917 144.969 1.6875ZM157.344 3.75C157.344 3.9375 157.281 4.08333 157.156 4.1875C157.031 4.27083 156.917 4.38542 156.812 4.53125C156.604 4.71875 156.417 4.91667 156.25 5.125C156.104 5.3125 155.927 5.5 155.719 5.6875C155.635 5.77083 155.521 5.88542 155.375 6.03125C155.229 6.15625 155.073 6.29167 154.906 6.4375C154.76 6.5625 154.604 6.67708 154.438 6.78125C154.292 6.88542 154.167 6.9375 154.062 6.9375C153.896 6.9375 153.677 6.88542 153.406 6.78125C153.156 6.65625 152.938 6.57292 152.75 6.53125C152.604 6.51042 152.469 6.5 152.344 6.5C152.24 6.47917 152.135 6.41667 152.031 6.3125C151.656 6.22917 151.417 6.10417 151.312 5.9375C151.208 5.75 151.094 5.5625 150.969 5.375C150.969 5.29167 151 5.23958 151.062 5.21875C151.125 5.19792 151.177 5.15625 151.219 5.09375C151.427 4.82292 151.604 4.60417 151.75 4.4375C151.896 4.25 152.062 4.0625 152.25 3.875C152.604 3.5625 152.938 3.23958 153.25 2.90625C153.583 2.57292 153.927 2.26042 154.281 1.96875C154.448 1.94792 154.573 1.88542 154.656 1.78125C154.74 1.67708 154.865 1.625 155.031 1.625C155.198 1.625 155.333 1.67708 155.438 1.78125C155.562 1.88542 155.667 2.01042 155.75 2.15625C155.854 2.28125 155.948 2.41667 156.031 2.5625C156.135 2.6875 156.25 2.78125 156.375 2.84375C156.521 2.94792 156.719 3.08333 156.969 3.25C157.219 3.41667 157.344 3.58333 157.344 3.75ZM153.062 9.5625C153.208 9.64583 153.312 9.76042 153.375 9.90625C153.458 10.0312 153.573 10.125 153.719 10.1875C153.844 10.25 153.979 10.2812 154.125 10.2812C154.271 10.2812 154.396 10.3021 154.5 10.3438C154.583 10.3854 154.646 10.4375 154.688 10.5C154.729 10.5625 154.771 10.625 154.812 10.6875C154.938 10.7917 155.125 10.8854 155.375 10.9688C155.646 11.0521 155.823 11.1458 155.906 11.25C156.052 11.4375 156.156 11.6771 156.219 11.9688C156.302 12.2604 156.365 12.5729 156.406 12.9062C156.448 13.2188 156.479 13.5417 156.5 13.875C156.521 14.1875 156.552 14.4583 156.594 14.6875C156.635 15.1667 156.688 15.6458 156.75 16.125C156.812 16.5833 156.844 17.0521 156.844 17.5312C156.844 18.0104 156.823 18.5 156.781 19C156.74 19.5 156.719 19.9896 156.719 20.4688C156.719 20.7188 156.708 21.0312 156.688 21.4062C156.688 21.7812 156.604 22.0729 156.438 22.2812C156.417 22.3646 156.406 22.5104 156.406 22.7188V23.7188C156.406 23.8438 156.417 23.9688 156.438 24.0938C156.458 24.2188 156.469 24.3542 156.469 24.5C156.469 24.7292 156.406 24.8958 156.281 25C156.219 24.9792 156.146 24.9688 156.062 24.9688C156 24.9688 155.938 24.9688 155.875 24.9688C155.646 24.9688 155.479 25.0104 155.375 25.0938C155.146 25.0729 154.927 25.0521 154.719 25.0312C154.51 25.0104 154.292 25 154.062 25C153.708 25 153.323 25.0521 152.906 25.1562C152.823 24.9479 152.781 24.7292 152.781 24.5C152.802 24.2708 152.76 24.0625 152.656 23.875C152.635 23.8125 152.615 23.7604 152.594 23.7188C152.594 23.6562 152.594 23.5938 152.594 23.5312C152.656 23.2812 152.688 23.1146 152.688 23.0312C152.688 22.9271 152.688 22.8229 152.688 22.7188C152.688 22.4271 152.677 22.1354 152.656 21.8438C152.635 21.5312 152.646 21.2292 152.688 20.9375C152.688 20.8333 152.698 20.7396 152.719 20.6562C152.76 20.5729 152.781 20.4792 152.781 20.375C152.781 20.2708 152.76 20.1979 152.719 20.1562C152.677 20.1146 152.656 20.0625 152.656 20C152.656 19.9375 152.656 19.8333 152.656 19.6875C152.677 19.5417 152.708 19.4479 152.75 19.4062C152.75 19.2396 152.75 19.0833 152.75 18.9375C152.771 18.7708 152.781 18.6146 152.781 18.4688C152.781 18.1354 152.771 17.8021 152.75 17.4688C152.729 17.1354 152.719 16.8125 152.719 16.5C152.719 16.3542 152.708 16.2604 152.688 16.2188C152.667 16.1771 152.646 16.1458 152.625 16.125C152.604 16.1042 152.573 16.0938 152.531 16.0938C152.49 16.0729 152.458 16.0312 152.438 15.9688C152.521 15.0521 152.49 14.1354 152.344 13.2188C152.198 12.3021 152.125 11.375 152.125 10.4375C152.125 10.2917 152.146 10.1875 152.188 10.125C152.229 10.0417 152.281 9.97917 152.344 9.9375C152.406 9.89583 152.458 9.85417 152.5 9.8125C152.562 9.75 152.604 9.66667 152.625 9.5625C152.792 9.60417 152.938 9.60417 153.062 9.5625ZM166.844 1.34375C166.948 1.71875 167.052 2.09375 167.156 2.46875C167.26 2.82292 167.385 3.17708 167.531 3.53125C167.844 3.57292 168.031 3.60417 168.094 3.625C168.177 3.64583 168.271 3.67708 168.375 3.71875C168.604 4.26042 168.74 4.84375 168.781 5.46875C168.844 6.07292 168.927 6.66667 169.031 7.25C169.427 7.77083 169.708 8.33333 169.875 8.9375C170.062 9.52083 170.271 10.1146 170.5 10.7188C170.562 10.9271 170.604 11.0625 170.625 11.125C170.646 11.1667 170.656 11.2083 170.656 11.25C170.781 11.6042 170.906 11.9688 171.031 12.3438C171.156 12.7188 171.292 13.0833 171.438 13.4375C171.5 13.625 171.562 13.8125 171.625 14C171.708 14.1667 171.781 14.3333 171.844 14.5C171.906 14.7083 171.958 14.9271 172 15.1562C172.062 15.3646 172.125 15.5729 172.188 15.7812C172.333 16.1979 172.49 16.6146 172.656 17.0312C172.823 17.4479 172.99 17.8646 173.156 18.2812C173.219 18.4271 173.333 18.75 173.5 19.25C173.688 19.75 173.875 20.2812 174.062 20.8438C174.25 21.3854 174.417 21.8958 174.562 22.375C174.729 22.8333 174.812 23.1146 174.812 23.2188C174.812 23.3854 174.823 23.5625 174.844 23.75C174.885 23.9167 174.917 24.0938 174.938 24.2812C174.854 24.4896 174.75 24.6042 174.625 24.625C174.5 24.6458 174.385 24.6354 174.281 24.5938C174.177 24.6354 174.073 24.6771 173.969 24.7188C173.885 24.7604 173.802 24.8021 173.719 24.8438C173.656 24.8646 173.604 24.8958 173.562 24.9375C173.521 24.9792 173.469 25 173.406 25C173.156 25 172.99 25.0208 172.906 25.0625C172.844 25.125 172.74 25.1562 172.594 25.1562C172.406 25.0938 172.281 25.0833 172.219 25.125C172.177 25.1875 172.135 25.2292 172.094 25.25C172.01 25.2917 171.917 25.3125 171.812 25.3125C171.708 25.3125 171.604 25.3229 171.5 25.3438C171.458 25.2604 171.417 25.1771 171.375 25.0938C171.354 25.0104 171.312 24.9167 171.25 24.8125C171.021 24.4792 170.854 24.1562 170.75 23.8438C170.667 23.5312 170.594 23.2812 170.531 23.0938C170.427 22.8646 170.333 22.6354 170.25 22.4062C170.188 22.1771 170.104 21.9479 170 21.7188C169.875 21.7604 169.76 21.8125 169.656 21.875C169.552 21.9167 169.469 21.9792 169.406 22.0625C169.156 22.0625 169.031 22.0938 169.031 22.1562C169.031 22.2188 169.01 22.2812 168.969 22.3438C168.844 22.3854 168.74 22.4271 168.656 22.4688C168.594 22.5104 168.479 22.5208 168.312 22.5C168.208 22.6042 168.104 22.6979 168 22.7812C167.896 22.8438 167.76 22.8854 167.594 22.9062C167.427 23.0729 167.25 23.2188 167.062 23.3438C166.896 23.4479 166.698 23.4688 166.469 23.4062C166.177 23.4688 165.885 23.5312 165.594 23.5938C165.302 23.6354 165.01 23.6562 164.719 23.6562C164.385 23.5521 164.177 23.4583 164.094 23.375C164.01 23.2917 163.885 23.25 163.719 23.25C163.74 22.9583 163.677 22.7604 163.531 22.6562C163.531 22.5938 163.531 22.5 163.531 22.375C163.552 22.2292 163.583 22.1354 163.625 22.0938C163.896 21.9688 164.052 21.8333 164.094 21.6875C164.135 21.5417 164.25 21.4479 164.438 21.4062C164.479 21.3229 164.521 21.25 164.562 21.1875C164.625 21.1042 164.677 21.0208 164.719 20.9375C164.823 20.8958 164.906 20.8646 164.969 20.8438C165.052 20.8229 165.115 20.7604 165.156 20.6562C165.26 20.6562 165.417 20.5938 165.625 20.4688C165.833 20.3229 165.969 20.2083 166.031 20.125C166.198 20.0625 166.302 20.0104 166.344 19.9688C166.385 19.9062 166.438 19.8542 166.5 19.8125C166.708 19.8333 166.844 19.8125 166.906 19.75C167.073 19.8333 167.26 19.875 167.469 19.875C167.552 19.875 167.625 19.875 167.688 19.875C167.75 19.8542 167.823 19.8438 167.906 19.8438C168.073 19.6771 168.281 19.5729 168.531 19.5312C168.802 19.4688 169.021 19.3542 169.188 19.1875C169.125 19.0208 169.073 18.8229 169.031 18.5938C168.99 18.3438 168.917 18.1458 168.812 18C168.771 17.7292 168.698 17.4688 168.594 17.2188C168.51 16.9688 168.438 16.7292 168.375 16.5C168.146 15.625 167.875 14.7708 167.562 13.9375C167.25 13.1042 166.99 12.25 166.781 11.375C166.74 11.2708 166.688 11.1667 166.625 11.0625C166.583 10.9375 166.542 10.8229 166.5 10.7188C166.396 10.9688 166.344 11.1146 166.344 11.1562C166.344 11.1771 166.323 11.2083 166.281 11.25C166.26 11.3542 166.24 11.4479 166.219 11.5312C166.198 11.5938 166.167 11.6771 166.125 11.7812C166.062 11.9479 166 12.1354 165.938 12.3438C165.896 12.5312 165.854 12.7083 165.812 12.875C165.708 13.2292 165.615 13.6042 165.531 14C165.448 14.375 165.354 14.75 165.25 15.125C165.042 15.7708 164.823 16.4167 164.594 17.0625C164.385 17.6875 164.177 18.3229 163.969 18.9688C163.927 19.2604 163.875 19.4896 163.812 19.6562C163.771 19.8021 163.719 19.9583 163.656 20.125C163.615 20.2708 163.573 20.4167 163.531 20.5625C163.51 20.7083 163.5 20.8229 163.5 20.9062C163.208 21.5729 162.958 22.25 162.75 22.9375C162.562 23.625 162.323 24.2917 162.031 24.9375C161.948 24.9792 161.875 25.0312 161.812 25.0938C161.75 25.1562 161.677 25.1875 161.594 25.1875C161.427 25.1875 161.333 25.1458 161.312 25.0625C161.312 24.9792 161.271 24.9375 161.188 24.9375C161.104 24.9375 161.031 24.9583 160.969 25C160.906 25.0208 160.844 25.0521 160.781 25.0938C160.677 25.0521 160.552 25.0208 160.406 25C160.281 25 160.188 24.9583 160.125 24.875C159.979 24.9792 159.833 25.0312 159.688 25.0312C159.521 25.0312 159.354 24.9792 159.188 24.875C159.062 24.9167 158.938 24.9375 158.812 24.9375C158.75 24.9375 158.677 24.9271 158.594 24.9062C158.51 24.8854 158.448 24.8542 158.406 24.8125C158.385 24.7292 158.375 24.6458 158.375 24.5625C158.375 24.4792 158.375 24.3854 158.375 24.2812C158.375 24.0729 158.354 23.9167 158.312 23.8125C158.688 22.75 159.052 21.6771 159.406 20.5938C159.76 19.4896 160.115 18.375 160.469 17.25C160.656 16.7292 160.833 16.2188 161 15.7188C161.188 15.2188 161.365 14.7083 161.531 14.1875C161.615 13.8958 161.688 13.625 161.75 13.375C161.812 13.1042 161.896 12.8438 162 12.5938C162.167 12.0521 162.333 11.5104 162.5 10.9688C162.688 10.4062 162.854 9.85417 163 9.3125C163.083 9.25 163.135 9.17708 163.156 9.09375C163.177 9.01042 163.208 8.91667 163.25 8.8125L163.219 8.40625C163.365 8.19792 163.458 8.02083 163.5 7.875C163.562 7.70833 163.604 7.54167 163.625 7.375C163.729 7.125 163.823 6.85417 163.906 6.5625C163.99 6.27083 164.052 6 164.094 5.75C164.135 5.41667 164.156 5.04167 164.156 4.625C164.177 4.1875 164.24 3.82292 164.344 3.53125C164.385 3.44792 164.417 3.39583 164.438 3.375C164.479 3.33333 164.5 3.26042 164.5 3.15625C164.542 3.11458 164.583 3.07292 164.625 3.03125C164.688 2.96875 164.729 2.90625 164.75 2.84375C164.854 2.67708 164.885 2.53125 164.844 2.40625C164.823 2.28125 164.812 2.14583 164.812 2C165 1.89583 165.083 1.80208 165.062 1.71875C165.042 1.63542 165.031 1.55208 165.031 1.46875C165.031 1.36458 165.094 1.27083 165.219 1.1875C165.365 1.08333 165.458 0.979167 165.5 0.875C165.625 0.895833 165.75 0.916667 165.875 0.9375C166 0.9375 166.125 0.927083 166.25 0.90625C166.396 1.17708 166.573 1.3125 166.781 1.3125L166.844 1.34375ZM192.938 13.0312C192.979 13.1771 193.062 13.3333 193.188 13.5C193.312 13.6667 193.375 13.7917 193.375 13.875C193.208 14.2708 193.083 14.5833 193 14.8125C192.917 15.0208 192.781 15.2083 192.594 15.375C192.594 15.4375 192.531 15.5729 192.406 15.7812C192.281 15.9896 192.135 16.2188 191.969 16.4688C191.823 16.6979 191.667 16.9271 191.5 17.1562C191.354 17.3646 191.26 17.5104 191.219 17.5938C191.115 17.7604 191.031 17.9271 190.969 18.0938C190.906 18.2396 190.833 18.3854 190.75 18.5312C190.562 18.8646 190.365 19.1771 190.156 19.4688C189.969 19.7604 189.792 20.0833 189.625 20.4375C189.521 20.5417 189.427 20.6562 189.344 20.7812C189.26 20.9062 189.167 21.0208 189.062 21.125C188.812 21.5833 188.521 22.0104 188.188 22.4062C187.875 22.8021 187.583 23.2396 187.312 23.7188C187.542 23.9479 187.656 24.2396 187.656 24.5938C187.656 24.7812 187.604 24.8854 187.5 24.9062C187.396 24.9062 187.302 24.9271 187.219 24.9688C187.01 25.1146 186.823 25.1979 186.656 25.2188C186.49 25.2396 186.354 25.25 186.25 25.25C186.021 25.25 185.771 25.2396 185.5 25.2188C185.229 25.2188 185 25.2396 184.812 25.2812C184.75 25.3021 184.677 25.3333 184.594 25.375C184.51 25.4375 184.448 25.4688 184.406 25.4688C184.24 25.4688 184.115 25.4375 184.031 25.375C183.969 25.3333 183.875 25.2917 183.75 25.25C183.583 25.0625 183.427 24.8646 183.281 24.6562C183.156 24.4479 183.021 24.2396 182.875 24.0312C182.75 23.8854 182.615 23.7604 182.469 23.6562C182.323 23.5312 182.188 23.3854 182.062 23.2188C181.729 22.7396 181.385 22.2812 181.031 21.8438C180.698 21.4062 180.354 20.9688 180 20.5312C179.833 20.3021 179.646 20.0833 179.438 19.875C179.25 19.6667 179.073 19.4583 178.906 19.25C178.74 19.0208 178.583 18.7812 178.438 18.5312C178.292 18.2812 178.135 18.0417 177.969 17.8125C177.844 17.6042 177.667 17.3542 177.438 17.0625C177.208 16.75 176.969 16.4375 176.719 16.125C176.469 15.8125 176.208 15.5208 175.938 15.25C175.688 14.9583 175.469 14.7396 175.281 14.5938C175.281 14.4479 175.24 14.3438 175.156 14.2812C175.073 14.2188 174.979 14.1458 174.875 14.0625C174.833 13.9583 174.781 13.8646 174.719 13.7812C174.656 13.6771 174.625 13.5625 174.625 13.4375C174.625 13.2917 174.656 13.1562 174.719 13.0312C174.76 12.9479 174.781 12.875 174.781 12.8125C174.802 12.7292 174.833 12.6458 174.875 12.5625C174.979 12.2917 175.125 12.0521 175.312 11.8438C175.521 11.6354 175.677 11.3958 175.781 11.125C175.802 11.0417 175.812 10.9688 175.812 10.9062C175.812 10.8229 175.833 10.7396 175.875 10.6562C175.938 10.5104 176.031 10.3854 176.156 10.2812C176.281 10.1562 176.396 10.0208 176.5 9.875C176.604 9.6875 176.708 9.5 176.812 9.3125C176.917 9.125 177.021 8.9375 177.125 8.75C177.417 8.27083 177.74 7.8125 178.094 7.375C178.448 6.91667 178.781 6.46875 179.094 6.03125C179.385 5.61458 179.656 5.20833 179.906 4.8125C180.156 4.39583 180.427 3.97917 180.719 3.5625C180.865 3.35417 181.031 3.125 181.219 2.875C181.406 2.60417 181.594 2.34375 181.781 2.09375C181.99 1.84375 182.198 1.61458 182.406 1.40625C182.615 1.17708 182.823 1.01042 183.031 0.90625C183.385 0.864583 183.615 0.927083 183.719 1.09375C183.823 1.23958 183.969 1.3125 184.156 1.3125C184.448 1.375 184.646 1.46875 184.75 1.59375C184.854 1.71875 184.958 1.83333 185.062 1.9375C185.333 1.9375 185.562 1.98958 185.75 2.09375C185.938 2.19792 186.125 2.35417 186.312 2.5625C186.229 2.79167 186.115 3 185.969 3.1875C185.844 3.375 185.729 3.57292 185.625 3.78125C185.458 3.84375 185.333 3.94792 185.25 4.09375C185.188 4.23958 185.083 4.36458 184.938 4.46875C184.708 4.82292 184.479 5.17708 184.25 5.53125C184.021 5.86458 183.792 6.1875 183.562 6.5C183.458 6.625 183.344 6.72917 183.219 6.8125C183.094 6.875 182.979 6.97917 182.875 7.125C182.833 7.1875 182.802 7.26042 182.781 7.34375C182.76 7.40625 182.729 7.46875 182.688 7.53125C182.438 7.92708 182.156 8.3125 181.844 8.6875C181.531 9.0625 181.26 9.45833 181.031 9.875C180.927 10.0208 180.844 10.1771 180.781 10.3438C180.719 10.4896 180.646 10.6354 180.562 10.7812C180.479 10.9271 180.354 11.1146 180.188 11.3438C180.042 11.5521 179.885 11.7708 179.719 12C179.573 12.2292 179.438 12.4583 179.312 12.6875C179.208 12.9167 179.156 13.1042 179.156 13.25C179.177 13.3542 179.312 13.5625 179.562 13.875C179.812 14.1875 180.094 14.5208 180.406 14.875C180.719 15.2292 181.01 15.5729 181.281 15.9062C181.573 16.2188 181.75 16.4062 181.812 16.4688C181.854 16.5729 182.01 16.8021 182.281 17.1562C182.552 17.4896 182.854 17.8646 183.188 18.2812C183.542 18.6771 183.885 19.0625 184.219 19.4375C184.552 19.8125 184.781 20.0833 184.906 20.25L185.156 20.6562C185.198 20.6354 185.302 20.4896 185.469 20.2188C185.656 19.9479 185.844 19.6458 186.031 19.3125C186.219 18.9792 186.385 18.6667 186.531 18.375C186.698 18.0833 186.802 17.8958 186.844 17.8125C186.906 17.75 187.01 17.5833 187.156 17.3125C187.302 17.0417 187.458 16.75 187.625 16.4375C187.812 16.125 187.969 15.8333 188.094 15.5625C188.24 15.2917 188.323 15.1146 188.344 15.0312H187.969C187.635 15.0312 187.302 15.0521 186.969 15.0938C186.656 15.1146 186.333 15.1771 186 15.2812C185.854 15.2604 185.729 15.2188 185.625 15.1562C185.521 15.0938 185.396 15.0312 185.25 14.9688C185.188 14.7604 185.156 14.6146 185.156 14.5312C185.177 14.4479 185.177 14.3854 185.156 14.3438C185.135 14.2604 185.104 14.1979 185.062 14.1562C185.042 14.1146 185.031 14.0521 185.031 13.9688C185.031 13.8229 185.01 13.7083 184.969 13.625C184.927 13.5208 184.885 13.4062 184.844 13.2812C184.844 13.1979 184.844 13.1146 184.844 13.0312C184.865 12.9479 184.854 12.875 184.812 12.8125C184.854 12.4375 184.823 12.1667 184.719 12C184.719 11.7083 184.76 11.5208 184.844 11.4375C184.927 11.3542 184.99 11.2292 185.031 11.0625C185.219 11.125 185.375 11.1146 185.5 11.0312C185.646 10.9271 185.792 10.875 185.938 10.875C186.271 10.875 186.542 10.8229 186.75 10.7188C186.938 10.6979 187.125 10.6875 187.312 10.6875C187.521 10.6875 187.719 10.6667 187.906 10.625C188.01 10.6042 188.094 10.5833 188.156 10.5625C188.24 10.5417 188.333 10.5208 188.438 10.5C188.562 10.4792 188.698 10.4688 188.844 10.4688C188.99 10.4688 189.125 10.4688 189.25 10.4688C189.583 10.4271 189.917 10.4062 190.25 10.4062C190.583 10.3854 190.917 10.3646 191.25 10.3438C191.354 10.3854 191.448 10.4167 191.531 10.4375C191.635 10.4583 191.729 10.4896 191.812 10.5312C191.875 10.5729 191.927 10.625 191.969 10.6875C192.01 10.7292 192.083 10.7604 192.188 10.7812C192.292 10.8854 192.365 10.9896 192.406 11.0938C192.365 11.2812 192.375 11.4167 192.438 11.5C192.333 11.6042 192.271 11.75 192.25 11.9375C192.25 12.1042 192.24 12.2604 192.219 12.4062C192.365 12.4479 192.49 12.5625 192.594 12.75C192.698 12.9375 192.771 13.0312 192.812 13.0312H192.938ZM210.469 12.5938C210.427 12.6771 210.385 12.7604 210.344 12.8438C210.302 12.9062 210.271 12.9792 210.25 13.0625C210.333 13.1458 210.406 13.2396 210.469 13.3438C210.552 13.4271 210.594 13.5208 210.594 13.625C210.594 13.7083 210.573 13.7917 210.531 13.875C210.51 13.9375 210.51 14 210.531 14.0625C210.448 14.2083 210.354 14.3438 210.25 14.4688C210.167 14.5938 210.104 14.7292 210.062 14.875C209.979 14.9583 209.906 15.0417 209.844 15.125C209.802 15.2083 209.76 15.2917 209.719 15.375C209.615 15.4167 209.542 15.4896 209.5 15.5938C209.479 15.6771 209.427 15.75 209.344 15.8125C209.323 15.8958 209.219 16.0938 209.031 16.4062C208.844 16.7188 208.635 17.0521 208.406 17.4062C208.177 17.7604 207.958 18.1042 207.75 18.4375C207.542 18.7708 207.396 18.9896 207.312 19.0938C207.271 19.1979 207.219 19.2812 207.156 19.3438C207.115 19.4062 207.062 19.4792 207 19.5625C206.958 19.625 206.927 19.6979 206.906 19.7812C206.885 19.8438 206.854 19.8958 206.812 19.9375C206.771 20.0208 206.719 20.0938 206.656 20.1562C206.615 20.2188 206.573 20.3021 206.531 20.4062C206.323 20.6771 206.115 21 205.906 21.375C205.698 21.75 205.5 22.0833 205.312 22.375C205.208 22.5417 205.104 22.7083 205 22.875C204.917 23.0417 204.823 23.2083 204.719 23.375C204.615 23.5417 204.51 23.6979 204.406 23.8438C204.302 23.9896 204.198 24.1458 204.094 24.3125C203.927 24.4375 203.781 24.5938 203.656 24.7812C203.531 24.9479 203.385 25.0938 203.219 25.2188C202.948 25.2188 202.781 25.0938 202.719 24.8438C202.448 24.7812 202.312 24.7812 202.312 24.8438C202.312 24.9062 202.312 24.9583 202.312 25C202.229 25.0417 202.167 25.1042 202.125 25.1875C202.104 25.2708 202.052 25.3333 201.969 25.375C201.802 25.3333 201.656 25.2604 201.531 25.1562C201.427 25.0729 201.271 25.0417 201.062 25.0625C200.979 24.9375 200.885 24.8333 200.781 24.75C200.677 24.6458 200.583 24.5417 200.5 24.4375C200.458 24.3125 200.396 24.2083 200.312 24.125C200.25 24.0417 200.188 23.9583 200.125 23.875C200.062 23.7708 200 23.6771 199.938 23.5938C199.875 23.5104 199.812 23.4271 199.75 23.3438C199.604 23.1562 199.458 22.9792 199.312 22.8125C199.188 22.625 199.073 22.4375 198.969 22.25C198.802 22 198.635 21.75 198.469 21.5C198.323 21.2292 198.167 20.9688 198 20.7188C197.917 20.5938 197.833 20.4688 197.75 20.3438C197.667 20.2188 197.594 20.0938 197.531 19.9688C197.49 19.8646 197.427 19.7396 197.344 19.5938C197.281 19.4479 197.198 19.3542 197.094 19.3125C197.052 19.1458 196.979 19.0208 196.875 18.9375C196.771 18.8542 196.667 18.75 196.562 18.625C196.417 18.4583 196.281 18.2812 196.156 18.0938C196.031 17.8854 195.906 17.6771 195.781 17.4688C195.365 16.8854 194.969 16.3125 194.594 15.75C194.24 15.1875 193.885 14.6042 193.531 14C193.635 13.6667 193.688 13.4167 193.688 13.25C193.688 13.0833 193.74 12.9479 193.844 12.8438C193.844 12.7604 193.865 12.6354 193.906 12.4688C194.177 12.0104 194.438 11.5938 194.688 11.2188C194.917 10.8646 195.073 10.5729 195.156 10.3438C195.26 10.1146 195.365 9.875 195.469 9.625C195.573 9.5625 195.656 9.48958 195.719 9.40625C195.781 9.30208 195.865 9.20833 195.969 9.125C196.01 8.89583 196.104 8.70833 196.25 8.5625C196.396 8.39583 196.49 8.19792 196.531 7.96875C196.719 7.82292 196.823 7.65625 196.844 7.46875C197.115 7.28125 197.281 7.03125 197.344 6.71875C197.51 6.55208 197.646 6.36458 197.75 6.15625C197.875 5.94792 197.99 5.72917 198.094 5.5C198.344 5.29167 198.542 5.02083 198.688 4.6875C198.812 4.60417 198.906 4.48958 198.969 4.34375C199.031 4.19792 199.115 4.07292 199.219 3.96875C199.385 3.69792 199.51 3.47917 199.594 3.3125C199.698 3.125 199.802 2.9375 199.906 2.75C200.052 2.75 200.146 2.69792 200.188 2.59375C200.229 2.48958 200.312 2.44792 200.438 2.46875C200.438 2.28125 200.49 2.11458 200.594 1.96875C200.635 1.94792 200.698 1.92708 200.781 1.90625C200.865 1.86458 200.906 1.82292 200.906 1.78125C200.865 1.53125 200.875 1.38542 200.938 1.34375C201 1.30208 201.052 1.26042 201.094 1.21875C201.323 1.26042 201.479 1.29167 201.562 1.3125C201.646 1.33333 201.781 1.40625 201.969 1.53125C202.177 1.53125 202.323 1.57292 202.406 1.65625C202.49 1.73958 202.583 1.80208 202.688 1.84375C202.771 1.92708 202.833 2.01042 202.875 2.09375C202.938 2.17708 203.021 2.23958 203.125 2.28125C203.292 2.51042 203.469 2.76042 203.656 3.03125C203.844 3.30208 204.021 3.55208 204.188 3.78125C204.417 4.09375 204.646 4.39583 204.875 4.6875C205.125 4.95833 205.354 5.26042 205.562 5.59375C205.625 5.69792 205.74 5.88542 205.906 6.15625C206.073 6.40625 206.26 6.67708 206.469 6.96875C206.677 7.26042 206.865 7.53125 207.031 7.78125C207.198 8.01042 207.312 8.14583 207.375 8.1875C207.438 8.29167 207.573 8.48958 207.781 8.78125C207.99 9.07292 208.208 9.38542 208.438 9.71875C208.688 10.0312 208.927 10.3333 209.156 10.625C209.385 10.9167 209.542 11.1042 209.625 11.1875C209.854 11.5 210.021 11.7604 210.125 11.9688C210.25 12.1562 210.365 12.3646 210.469 12.5938ZM203.312 18.4688C203.542 18.1562 203.719 17.875 203.844 17.625C203.969 17.375 204.094 17.125 204.219 16.875C204.427 16.625 204.552 16.4479 204.594 16.3438C204.635 16.2396 204.688 16.1354 204.75 16.0312C204.917 15.7812 205.083 15.5312 205.25 15.2812C205.438 15.0312 205.583 14.7604 205.688 14.4688C205.812 14.3854 205.906 14.2812 205.969 14.1562C206.031 14.0312 206.125 13.9167 206.25 13.8125C206.125 13.375 205.979 13.0417 205.812 12.8125C205.646 12.5625 205.479 12.3229 205.312 12.0938C205.25 11.9896 205.188 11.8854 205.125 11.7812C205.062 11.6771 205 11.5729 204.938 11.4688C204.854 11.4062 204.781 11.3438 204.719 11.2812C204.677 11.2188 204.625 11.1562 204.562 11.0938C204.521 10.9896 204.458 10.8542 204.375 10.6875C204.292 10.5833 204.208 10.4896 204.125 10.4062C204.042 10.3229 203.969 10.2188 203.906 10.0938C203.823 10.0104 203.719 9.89583 203.594 9.75C203.469 9.60417 203.333 9.44792 203.188 9.28125C203.062 9.09375 202.948 8.92708 202.844 8.78125C202.74 8.61458 202.656 8.47917 202.594 8.375C202.552 8.27083 202.51 8.1875 202.469 8.125C202.448 8.04167 202.417 7.95833 202.375 7.875C202.271 7.72917 202.167 7.60417 202.062 7.5C201.958 7.375 201.854 7.23958 201.75 7.09375C201.688 7.13542 201.625 7.16667 201.562 7.1875C201.521 7.1875 201.479 7.20833 201.438 7.25C201.292 7.52083 201.125 7.77083 200.938 8C200.771 8.22917 200.604 8.47917 200.438 8.75C200.292 9 200.146 9.26042 200 9.53125C199.854 9.78125 199.708 10.0312 199.562 10.2812C199.458 10.4271 199.354 10.5729 199.25 10.7188C199.167 10.8438 199.073 10.9896 198.969 11.1562C198.865 11.3021 198.771 11.4583 198.688 11.625C198.625 11.7708 198.542 11.9167 198.438 12.0625C198.271 12.2708 198.135 12.4583 198.031 12.625C197.927 12.7917 197.823 12.9896 197.719 13.2188C197.781 13.3438 197.875 13.5208 198 13.75C198.146 13.9583 198.292 14.1771 198.438 14.4062C198.583 14.6146 198.708 14.8125 198.812 15C198.938 15.1875 199.01 15.3125 199.031 15.375C199.198 15.5208 199.333 15.6875 199.438 15.875C199.542 16.0417 199.677 16.2083 199.844 16.375C199.927 16.5417 200.021 16.6875 200.125 16.8125C200.229 16.9375 200.333 17.0729 200.438 17.2188C200.542 17.3646 200.677 17.5833 200.844 17.875C201.01 18.1458 201.177 18.4271 201.344 18.7188C201.51 19.0104 201.677 19.2812 201.844 19.5312C202.01 19.7812 202.146 19.9375 202.25 20C202.458 19.7708 202.625 19.5208 202.75 19.25C202.896 18.9583 203.083 18.6979 203.312 18.4688Z" fill="white"/>
</svg>
